<svg width="16" height="16" viewBox="0 0 16 16" fill="none" xmlns="http://www.w3.org/2000/svg">
<path d="M8.00001 5.33331L8.29276 7.34062C8.47148 8.56604 9.43395 9.52851 10.6594 9.70723L12.6667 9.99998L10.6594 10.2927C9.43395 10.4714 8.47148 11.4339 8.29276 12.6593L8.00001 14.6666L7.70726 12.6593C7.52854 11.4339 6.56607 10.4714 5.34065 10.2927L3.33334 9.99998L5.34065 9.70723C6.56607 9.52851 7.52854 8.56604 7.70726 7.34062L8.00001 5.33331Z" fill="#F3F4F4"/>
<path d="M4.33335 3.33331L4.47972 4.33697C4.56908 4.94968 5.05032 5.43091 5.66303 5.52027L6.66668 5.66665L5.66303 5.81302C5.05032 5.90238 4.56908 6.38361 4.47972 6.99632L4.33335 7.99998L4.18697 6.99632C4.09761 6.38361 3.61638 5.90238 3.00367 5.81302L2.00002 5.66665L3.00367 5.52027C3.61638 5.43091 4.09761 4.94968 4.18697 4.33697L4.33335 3.33331Z" fill="#F3F4F4"/>
<path d="M11 1.33331L11.1882 2.62373C11.3031 3.4115 11.9218 4.03023 12.7096 4.14512L14 4.33331L12.7096 4.52151C11.9218 4.6364 11.3031 5.25513 11.1882 6.0429L11 7.33331L10.8118 6.0429C10.6969 5.25513 10.0782 4.6364 9.29043 4.52151L8.00002 4.33331L9.29043 4.14512C10.0782 4.03023 10.6969 3.4115 10.8118 2.62373L11 1.33331Z" fill="#F3F4F4"/>
</svg>
