<svg width="16" height="16" viewBox="0 0 16 16" fill="none" xmlns="http://www.w3.org/2000/svg">
<path d="M4.55554 11.3333C3.88052 11.3333 3.33331 10.6866 3.33331 9.88885V4.11107C3.33331 3.31333 3.88052 2.66663 4.55554 2.66663H9.44442C10.1194 2.66663 10.6666 3.31333 10.6666 4.11107V4.66663M4.55554 11.3333H5.16665M4.55554 11.3333H5.33331" stroke="#878787"/>
<path d="M6.55554 13.3333H11.4444C12.1194 13.3333 12.6666 12.6866 12.6666 11.8888V6.11107C12.6666 5.31333 12.1194 4.66663 11.4444 4.66663H6.55554M6.55554 13.3333C5.88052 13.3333 5.33331 12.6866 5.33331 11.8888V6.11107C5.33331 5.31333 5.88052 4.66663 6.55554 4.66663M6.55554 13.3333H7.16665M6.55554 4.66663H7.16665" stroke="#878787"/>
</svg>
