<svg xmlns="http://www.w3.org/2000/svg" viewBox="0 0 512 512" width="16" height="16" fill="#878787" aria-hidden="true">
  <!--
    Font Awesome Free 6 — file-pdf (solid)
    Licence: CC BY 4.0  https://fontawesome.com/license/free
    Source:  https://fontawesome.com/icons/file-pdf
  -->
  <path d="M0 64C0 28.7 28.7 0 64 0H224V128c0 17.7 14.3 32 32 32H384V448
           c0 35.3-28.7 64-64 64H64c-35.3 0-64-28.7-64-64V64zm384 64H256V0L384 128z
           M176 352h32c30.9 0 56 25.1 56 56s-25.1 56-56 56H192v32
           c0 8.8-7.2 16-16 16s-16-7.2-16-16V368c0-8.8 7.2-16 16-16zm32 80
           c13.3 0 24-10.7 24-24s-10.7-24-24-24H192v48h16z
           M272 352h32c26.5 0 48 21.5 48 48v64c0 26.5-21.5 48-48 48H272
           c-8.8 0-16-7.2-16-16V368c0-8.8 7.2-16 16-16zm32 128
           c8.8 0 16-7.2 16-16V400c0-8.8-7.2-16-16-16H288v96h16z
           M416 368c0-8.8 7.2-16 16-16h48c8.8 0 16 7.2 16 16s-7.2 16-16 16H448v32h32
           c8.8 0 16 7.2 16 16s-7.2 16-16 16H448v48c0 8.8-7.2 16-16 16s-16-7.2-16-16V368z"/>
</svg>
