<svg width="24" height="15" viewBox="0 0 24 15" fill="none" xmlns="http://www.w3.org/2000/svg" class="size-icon"><g clip-path="url(#clip0_828_25352)"><path d="M22.2692 0.576904H1.73075C1.0935 0.576904 0.576904 1.0935 0.576904 1.73075V13.0384C0.576904 13.6757 1.0935 14.1923 1.73075 14.1923H22.2692C22.9065 14.1923 23.4231 13.6757 23.4231 13.0384V1.73075C23.4231 1.0935 22.9065 0.576904 22.2692 0.576904Z" stroke="#878787" stroke-width="1.15385"></path><path d="M3.46155 11.3076V3.46143H5.76924L8.07693 6.34604L10.3846 3.46143H12.6923V11.3076H10.3846V6.80758L8.07693 9.6922L5.76924 6.80758V11.3076H3.46155ZM17.8846 11.3076L14.4231 7.49989H16.7308V3.46143H19.0385V7.49989H21.3462L17.8846 11.3076Z" fill="#878787"></path></g><defs><clipPath id="clip0_828_25352"><rect width="24" height="14.7692" fill="#878787"></rect></clipPath></defs></svg>