<svg width="100" height="100" viewBox="0 0 100 100" fill="none" xmlns="http://www.w3.org/2000/svg">
  <!-- Left chevron/arrow part - filled -->
  <path d="M 12.19 24.88 L 29.36 37.98 L 68.77 1.84 C 70.6 0.5 73.04 0.25 75.13 1.26 L 96.46 11.22 C 98.62 12.27 100 14.47 100 16.88 V 83.12 C 100 85.53 98.62 87.73 96.46 88.78 L 75.13 98.74 C 73.04 99.75 70.6 99.5 68.77 98.16 L 29.36 62.02 L 12.19 75.12 C 10.59 76.34 8.35 76.24 6.87 74.88 L 1.36 69.85 C -0.45 68.19 -0.45 65.32 1.36 63.65 L 16.25 50 L 1.36 36.35 C -0.45 34.68 -0.45 31.81 1.36 30.15 L 6.87 25.12 C 8.35 23.76 10.59 23.66 12.19 24.88 Z M 75 27.18 L 75 72.82 L 45.11 50 Z" 
        fill="#878787"
        fill-rule="evenodd"/>
</svg>