<?xml version="1.0" encoding="utf-8" standalone="no"?>
<!DOCTYPE svg PUBLIC "-//W3C//DTD SVG 1.1//EN"
  "http://www.w3.org/Graphics/SVG/1.1/DTD/svg11.dtd">
<svg xmlns:xlink="http://www.w3.org/1999/xlink" width="288pt" height="288pt" viewBox="0 0 288 288" xmlns="http://www.w3.org/2000/svg" version="1.1">
 <metadata>
  <rdf:RDF xmlns:dc="http://purl.org/dc/elements/1.1/" xmlns:cc="http://creativecommons.org/ns#" xmlns:rdf="http://www.w3.org/1999/02/22-rdf-syntax-ns#">
   <cc:Work>
    <dc:type rdf:resource="http://purl.org/dc/dcmitype/StillImage"/>
    <dc:date>2025-12-08T11:23:10.279258</dc:date>
    <dc:format>image/svg+xml</dc:format>
    <dc:creator>
     <cc:Agent>
      <dc:title>Matplotlib v3.10.5, https://matplotlib.org/</dc:title>
     </cc:Agent>
    </dc:creator>
   </cc:Work>
  </rdf:RDF>
 </metadata>
 <defs>
  <style type="text/css">*{stroke-linejoin: round; stroke-linecap: butt}</style>
 </defs>
 <g id="figure_1">
  <g id="patch_1">
   <path d="M 0 288 
L 288 288 
L 288 0 
L 0 0 
L 0 288 
z
" style="fill: none"/>
  </g>
  <g id="axes_1">
   <g id="patch_2">
    <path d="M 144 271.542857 
C 177.824761 271.542857 210.268701 258.104137 234.186419 234.186419 
C 258.104137 210.268701 271.542857 177.824761 271.542857 144 
C 271.542857 110.175239 258.104137 77.731299 234.186419 53.813581 
C 210.268701 29.895863 177.824761 16.457143 144 16.457143 
C 110.175239 16.457143 77.731299 29.895863 53.813581 53.813581 
C 29.895863 77.731299 16.457143 110.175239 16.457143 144 
C 16.457143 177.824761 29.895863 210.268701 53.813581 234.186419 
C 77.731299 258.104137 110.175239 271.542857 144 271.542857 
z
" clip-path="url(#pde8c06532e)" style="fill: #ffffff"/>
   </g>
   <g id="patch_3">
    <path d="M 32.228571 256.457143 
L 36.342857 256.457143 
Q 42.514286 256.457143 42.514286 250.285714 
L 42.514286 232.457143 
Q 42.514286 226.285714 36.342857 226.285714 
L 32.228571 226.285714 
Q 26.057143 226.285714 26.057143 232.457143 
L 26.057143 250.285714 
Q 26.057143 256.457143 32.228571 256.457143 
z
" clip-path="url(#p598626ec3c)" style="fill: #2f7fa3"/>
   </g>
   <g id="patch_4">
    <path d="M 63.57551 256.457143 
L 67.689796 256.457143 
Q 73.861224 256.457143 73.861224 250.285714 
L 73.861224 222.073469 
Q 73.861224 215.902041 67.689796 215.902041 
L 63.57551 215.902041 
Q 57.404082 215.902041 57.404082 222.073469 
L 57.404082 250.285714 
Q 57.404082 256.457143 63.57551 256.457143 
z
" clip-path="url(#p598626ec3c)" style="fill: #3484a7"/>
   </g>
   <g id="patch_5">
    <path d="M 94.922449 256.457143 
L 99.036735 256.457143 
Q 105.208163 256.457143 105.208163 250.285714 
L 105.208163 211.689796 
Q 105.208163 205.518367 99.036735 205.518367 
L 94.922449 205.518367 
Q 88.75102 205.518367 88.75102 211.689796 
L 88.75102 250.285714 
Q 88.75102 256.457143 94.922449 256.457143 
z
" clip-path="url(#p598626ec3c)" style="fill: #3a89ab"/>
   </g>
   <g id="patch_6">
    <path d="M 126.269388 256.457143 
L 130.383673 256.457143 
Q 136.555102 256.457143 136.555102 250.285714 
L 136.555102 201.306122 
Q 136.555102 195.134694 130.383673 195.134694 
L 126.269388 195.134694 
Q 120.097959 195.134694 120.097959 201.306122 
L 120.097959 250.285714 
Q 120.097959 256.457143 126.269388 256.457143 
z
" clip-path="url(#p598626ec3c)" style="fill: #3f8daf"/>
   </g>
   <g id="patch_7">
    <path d="M 157.616327 256.457143 
L 161.730612 256.457143 
Q 167.902041 256.457143 167.902041 250.285714 
L 167.902041 190.922449 
Q 167.902041 184.75102 161.730612 184.75102 
L 157.616327 184.75102 
Q 151.444898 184.75102 151.444898 190.922449 
L 151.444898 250.285714 
Q 151.444898 256.457143 157.616327 256.457143 
z
" clip-path="url(#p598626ec3c)" style="fill: #4592b3"/>
   </g>
   <g id="patch_8">
    <path d="M 188.963265 256.457143 
L 193.077551 256.457143 
Q 199.24898 256.457143 199.24898 250.285714 
L 199.24898 180.538776 
Q 199.24898 174.367347 193.077551 174.367347 
L 188.963265 174.367347 
Q 182.791837 174.367347 182.791837 180.538776 
L 182.791837 250.285714 
Q 182.791837 256.457143 188.963265 256.457143 
z
" clip-path="url(#p598626ec3c)" style="fill: #4a97b7"/>
   </g>
   <g id="patch_9">
    <path d="M 220.310204 256.457143 
L 224.42449 256.457143 
Q 230.595918 256.457143 230.595918 250.285714 
L 230.595918 170.155102 
Q 230.595918 163.983673 224.42449 163.983673 
L 220.310204 163.983673 
Q 214.138776 163.983673 214.138776 170.155102 
L 214.138776 250.285714 
Q 214.138776 256.457143 220.310204 256.457143 
z
" clip-path="url(#p598626ec3c)" style="fill: #509cbb"/>
   </g>
   <g id="patch_10">
    <path d="M 251.657143 256.457143 
L 255.771429 256.457143 
Q 261.942857 256.457143 261.942857 250.285714 
L 261.942857 159.771429 
Q 261.942857 153.6 255.771429 153.6 
L 251.657143 153.6 
Q 245.485714 153.6 245.485714 159.771429 
L 245.485714 250.285714 
Q 245.485714 256.457143 251.657143 256.457143 
z
" clip-path="url(#p598626ec3c)" style="fill: #55a1bf"/>
   </g>
   <g id="patch_11">
    <path d="M 49.661074 125.581957 
C 53.867828 130.595371 59.900283 133.735669 66.419927 134.306063 
C 72.93957 134.876458 79.425686 132.831394 84.4391 128.62464 
C 89.452514 124.417886 92.592811 118.385431 93.163206 111.865787 
C 93.733601 105.346144 91.688537 98.860029 87.481783 93.846614 
L 68.571429 109.714286 
z
" clip-path="url(#p598626ec3c)" style="fill: #c85028"/>
   </g>
   <g id="patch_12">
    <path d="M 87.481783 93.846614 
C 85.164809 91.085352 82.270914 88.864788 79.004062 87.341431 
C 75.737211 85.818073 72.176 85.028571 68.571429 85.028571 
C 64.966857 85.028571 61.405646 85.818073 58.138795 87.341431 
C 54.871944 88.864788 51.978048 91.085352 49.661074 93.846614 
L 68.571429 109.714286 
z
" clip-path="url(#p598626ec3c)" style="fill: #2f7fa3"/>
   </g>
   <g id="patch_13">
    <path d="M 49.661074 93.846614 
C 45.93143 98.291431 43.885714 103.91199 43.885714 109.714286 
C 43.885714 115.516582 45.93143 121.13714 49.661074 125.581957 
L 68.571429 109.714286 
z
" clip-path="url(#p598626ec3c)" style="fill: #ffffff"/>
   </g>
   <g id="line2d_1">
    <path d="M 137.142857 150.857143 
L 178.285714 130.285714 
L 219.428571 113.828571 
" clip-path="url(#p598626ec3c)" style="fill: none; stroke: #002030; stroke-width: 10; stroke-linecap: round"/>
   </g>
   <g id="line2d_2">
    <path d="M 130.285714 54.857143 
L 163.2 54.857143 
" clip-path="url(#p598626ec3c)" style="fill: none; stroke: #002030; stroke-width: 6; stroke-linecap: round"/>
   </g>
   <g id="line2d_3">
    <path d="M 132.490553 63.085714 
L 160.995161 46.628571 
" clip-path="url(#p598626ec3c)" style="fill: none; stroke: #002030; stroke-width: 6; stroke-linecap: round"/>
   </g>
   <g id="line2d_4">
    <path d="M 138.514286 69.109447 
L 154.971429 40.604839 
" clip-path="url(#p598626ec3c)" style="fill: none; stroke: #002030; stroke-width: 6; stroke-linecap: round"/>
   </g>
   <g id="line2d_5">
    <path d="M 146.742857 71.314286 
L 146.742857 38.4 
" clip-path="url(#p598626ec3c)" style="fill: none; stroke: #002030; stroke-width: 6; stroke-linecap: round"/>
   </g>
   <g id="line2d_6">
    <path d="M 154.971429 69.109447 
L 138.514286 40.604839 
" clip-path="url(#p598626ec3c)" style="fill: none; stroke: #002030; stroke-width: 6; stroke-linecap: round"/>
   </g>
   <g id="line2d_7">
    <path d="M 160.995161 63.085714 
L 132.490553 46.628571 
" clip-path="url(#p598626ec3c)" style="fill: none; stroke: #002030; stroke-width: 6; stroke-linecap: round"/>
   </g>
   <g id="patch_14">
    <path d="M 178.285714 139.885714 
C 180.831664 139.885714 183.273681 138.874198 185.073939 137.073939 
C 186.874198 135.273681 187.885714 132.831664 187.885714 130.285714 
C 187.885714 127.739765 186.874198 125.297748 185.073939 123.497489 
C 183.273681 121.697231 180.831664 120.685714 178.285714 120.685714 
C 175.739765 120.685714 173.297748 121.697231 171.497489 123.497489 
C 169.697231 125.297748 168.685714 127.739765 168.685714 130.285714 
C 168.685714 132.831664 169.697231 135.273681 171.497489 137.073939 
C 173.297748 138.874198 175.739765 139.885714 178.285714 139.885714 
z
" clip-path="url(#p598626ec3c)" style="fill: #002030"/>
   </g>
   <g id="patch_15">
    <path d="M 219.428571 123.428571 
C 221.974521 123.428571 224.416538 122.417055 226.216797 120.616797 
C 228.017055 118.816538 229.028571 116.374521 229.028571 113.828571 
C 229.028571 111.282622 228.017055 108.840605 226.216797 107.040346 
C 224.416538 105.240088 221.974521 104.228571 219.428571 104.228571 
C 216.882622 104.228571 214.440605 105.240088 212.640346 107.040346 
C 210.840088 108.840605 209.828571 111.282622 209.828571 113.828571 
C 209.828571 116.374521 210.840088 118.816538 212.640346 120.616797 
C 214.440605 122.417055 216.882622 123.428571 219.428571 123.428571 
z
" clip-path="url(#p598626ec3c)" style="fill: #002030"/>
   </g>
   <g id="patch_16">
    <path d="M 146.742857 60.342857 
C 148.197686 60.342857 149.593124 59.764848 150.621843 58.736129 
C 151.650562 57.70741 152.228571 56.311971 152.228571 54.857143 
C 152.228571 53.402314 151.650562 52.006876 150.621843 50.978157 
C 149.593124 49.949438 148.197686 49.371429 146.742857 49.371429 
C 145.288029 49.371429 143.89259 49.949438 142.863871 50.978157 
C 141.835152 52.006876 141.257143 53.402314 141.257143 54.857143 
C 141.257143 56.311971 141.835152 57.70741 142.863871 58.736129 
C 143.89259 59.764848 145.288029 60.342857 146.742857 60.342857 
z
" clip-path="url(#p598626ec3c)" style="fill: #ffffff"/>
   </g>
   <g id="patch_17">
    <path d="M 178.285714 135.085714 
C 179.558689 135.085714 180.779698 134.579956 181.679827 133.679827 
C 182.579956 132.779698 183.085714 131.558689 183.085714 130.285714 
C 183.085714 129.012739 182.579956 127.791731 181.679827 126.891602 
C 180.779698 125.991473 179.558689 125.485714 178.285714 125.485714 
C 177.012739 125.485714 175.791731 125.991473 174.891602 126.891602 
C 173.991473 127.791731 173.485714 129.012739 173.485714 130.285714 
C 173.485714 131.558689 173.991473 132.779698 174.891602 133.679827 
C 175.791731 134.579956 177.012739 135.085714 178.285714 135.085714 
z
" clip-path="url(#p598626ec3c)" style="fill: #ffffff"/>
   </g>
   <g id="patch_18">
    <path d="M 219.428571 118.628571 
C 220.701546 118.628571 221.922555 118.122813 222.822684 117.222684 
C 223.722813 116.322555 224.228571 115.101546 224.228571 113.828571 
C 224.228571 112.555597 223.722813 111.334588 222.822684 110.434459 
C 221.922555 109.53433 220.701546 109.028571 219.428571 109.028571 
C 218.155597 109.028571 216.934588 109.53433 216.034459 110.434459 
C 215.13433 111.334588 214.628571 112.555597 214.628571 113.828571 
C 214.628571 115.101546 215.13433 116.322555 216.034459 117.222684 
C 216.934588 118.122813 218.155597 118.628571 219.428571 118.628571 
z
" clip-path="url(#p598626ec3c)" style="fill: #ffffff"/>
   </g>
   <g id="patch_19">
    <path d="M 144 281.142857 
C 180.370711 281.142857 215.256668 266.692621 240.974644 240.974644 
C 266.692621 215.256668 281.142857 180.370711 281.142857 144 
C 281.142857 107.629289 266.692621 72.743332 240.974644 47.025356 
C 215.256668 21.307379 180.370711 6.857143 144 6.857143 
C 107.629289 6.857143 72.743332 21.307379 47.025356 47.025356 
C 21.307379 72.743332 6.857143 107.629289 6.857143 144 
C 6.857143 180.370711 21.307379 215.256668 47.025356 240.974644 
C 72.743332 266.692621 107.629289 281.142857 144 281.142857 
L 144 281.142857 
z
" clip-path="url(#pde8c06532e)" style="fill: none; stroke: #002030; stroke-width: 16; stroke-linejoin: miter"/>
   </g>
  </g>
 </g>
 <defs>
  <clipPath id="pde8c06532e">
   <rect x="0" y="0" width="288" height="288"/>
  </clipPath>
  <clipPath id="p598626ec3c">
   <path d="M 144 271.542857 
C 177.824761 271.542857 210.268701 258.104137 234.186419 234.186419 
C 258.104137 210.268701 271.542857 177.824761 271.542857 144 
C 271.542857 110.175239 258.104137 77.731299 234.186419 53.813581 
C 210.268701 29.895863 177.824761 16.457143 144 16.457143 
C 110.175239 16.457143 77.731299 29.895863 53.813581 53.813581 
C 29.895863 77.731299 16.457143 110.175239 16.457143 144 
C 16.457143 177.824761 29.895863 210.268701 53.813581 234.186419 
C 77.731299 258.104137 110.175239 271.542857 144 271.542857 
z
"/>
  </clipPath>
 </defs>
</svg>
