<?xml version="1.0" encoding="utf-8" standalone="no"?>
<!DOCTYPE svg PUBLIC "-//W3C//DTD SVG 1.1//EN"
  "http://www.w3.org/Graphics/SVG/1.1/DTD/svg11.dtd">
<svg xmlns:xlink="http://www.w3.org/1999/xlink" width="432pt" height="120.96pt" viewBox="0 0 432 120.96" xmlns="http://www.w3.org/2000/svg" version="1.1">
 <metadata>
  <rdf:RDF xmlns:dc="http://purl.org/dc/elements/1.1/" xmlns:cc="http://creativecommons.org/ns#" xmlns:rdf="http://www.w3.org/1999/02/22-rdf-syntax-ns#">
   <cc:Work>
    <dc:type rdf:resource="http://purl.org/dc/dcmitype/StillImage"/>
    <dc:date>2025-12-08T11:28:30.608771</dc:date>
    <dc:format>image/svg+xml</dc:format>
    <dc:creator>
     <cc:Agent>
      <dc:title>Matplotlib v3.10.5, https://matplotlib.org/</dc:title>
     </cc:Agent>
    </dc:creator>
   </cc:Work>
  </rdf:RDF>
 </metadata>
 <defs>
  <style type="text/css">*{stroke-linejoin: round; stroke-linecap: butt}</style>
 </defs>
 <g id="figure_1">
  <g id="patch_1">
   <path d="M 0 120.96 
L 432 120.96 
L 432 0 
L 0 0 
L 0 120.96 
z
" style="fill: none"/>
  </g>
  <g id="axes_1">
   <g id="patch_2">
    <path d="M 60.48 114.048 
C 74.6864 114.048 88.312855 108.403738 98.358296 98.358296 
C 108.403738 88.312855 114.048 74.6864 114.048 60.48 
C 114.048 46.2736 108.403738 32.647145 98.358296 22.601704 
C 88.312855 12.556262 74.6864 6.912 60.48 6.912 
C 46.2736 6.912 32.647145 12.556262 22.601704 22.601704 
C 12.556262 32.647145 6.912 46.2736 6.912 60.48 
C 6.912 74.6864 12.556262 88.312855 22.601704 98.358296 
C 32.647145 108.403738 46.2736 114.048 60.48 114.048 
z
" clip-path="url(#pe4856d5944)" style="fill: #ffffff"/>
   </g>
   <g id="patch_3">
    <path d="M 14.256 107.712 
L 14.544 107.712 
Q 17.136 107.712 17.136 105.12 
L 17.136 97.632 
Q 17.136 95.04 14.544 95.04 
L 14.256 95.04 
Q 11.664 95.04 11.664 97.632 
L 11.664 105.12 
Q 11.664 107.712 14.256 107.712 
z
" clip-path="url(#pdcd94aabd1)" style="fill: #2f7fa3"/>
   </g>
   <g id="patch_4">
    <path d="M 22.634182 107.712 
L 22.922182 107.712 
Q 25.514182 107.712 25.514182 105.12 
L 25.514182 94.856727 
Q 25.514182 92.264727 22.922182 92.264727 
L 22.634182 92.264727 
Q 20.042182 92.264727 20.042182 94.856727 
L 20.042182 105.12 
Q 20.042182 107.712 22.634182 107.712 
z
" clip-path="url(#pdcd94aabd1)" style="fill: #3282a6"/>
   </g>
   <g id="patch_5">
    <path d="M 31.012364 107.712 
L 31.300364 107.712 
Q 33.892364 107.712 33.892364 105.12 
L 33.892364 92.081455 
Q 33.892364 89.489455 31.300364 89.489455 
L 31.012364 89.489455 
Q 28.420364 89.489455 28.420364 92.081455 
L 28.420364 105.12 
Q 28.420364 107.712 31.012364 107.712 
z
" clip-path="url(#pdcd94aabd1)" style="fill: #3685a8"/>
   </g>
   <g id="patch_6">
    <path d="M 39.390545 107.712 
L 39.678545 107.712 
Q 42.270545 107.712 42.270545 105.12 
L 42.270545 89.306182 
Q 42.270545 86.714182 39.678545 86.714182 
L 39.390545 86.714182 
Q 36.798545 86.714182 36.798545 89.306182 
L 36.798545 105.12 
Q 36.798545 107.712 39.390545 107.712 
z
" clip-path="url(#pdcd94aabd1)" style="fill: #3988ab"/>
   </g>
   <g id="patch_7">
    <path d="M 47.768727 107.712 
L 48.056727 107.712 
Q 50.648727 107.712 50.648727 105.12 
L 50.648727 86.530909 
Q 50.648727 83.938909 48.056727 83.938909 
L 47.768727 83.938909 
Q 45.176727 83.938909 45.176727 86.530909 
L 45.176727 105.12 
Q 45.176727 107.712 47.768727 107.712 
z
" clip-path="url(#pdcd94aabd1)" style="fill: #3d8bad"/>
   </g>
   <g id="patch_8">
    <path d="M 56.146909 107.712 
L 56.434909 107.712 
Q 59.026909 107.712 59.026909 105.12 
L 59.026909 83.755636 
Q 59.026909 81.163636 56.434909 81.163636 
L 56.146909 81.163636 
Q 53.554909 81.163636 53.554909 83.755636 
L 53.554909 105.12 
Q 53.554909 107.712 56.146909 107.712 
z
" clip-path="url(#pdcd94aabd1)" style="fill: #408eb0"/>
   </g>
   <g id="patch_9">
    <path d="M 64.525091 107.712 
L 64.813091 107.712 
Q 67.405091 107.712 67.405091 105.12 
L 67.405091 80.980364 
Q 67.405091 78.388364 64.813091 78.388364 
L 64.525091 78.388364 
Q 61.933091 78.388364 61.933091 80.980364 
L 61.933091 105.12 
Q 61.933091 107.712 64.525091 107.712 
z
" clip-path="url(#pdcd94aabd1)" style="fill: #4491b2"/>
   </g>
   <g id="patch_10">
    <path d="M 72.903273 107.712 
L 73.191273 107.712 
Q 75.783273 107.712 75.783273 105.12 
L 75.783273 78.205091 
Q 75.783273 75.613091 73.191273 75.613091 
L 72.903273 75.613091 
Q 70.311273 75.613091 70.311273 78.205091 
L 70.311273 105.12 
Q 70.311273 107.712 72.903273 107.712 
z
" clip-path="url(#pdcd94aabd1)" style="fill: #4794b5"/>
   </g>
   <g id="patch_11">
    <path d="M 81.281455 107.712 
L 81.569455 107.712 
Q 84.161455 107.712 84.161455 105.12 
L 84.161455 75.429818 
Q 84.161455 72.837818 81.569455 72.837818 
L 81.281455 72.837818 
Q 78.689455 72.837818 78.689455 75.429818 
L 78.689455 105.12 
Q 78.689455 107.712 81.281455 107.712 
z
" clip-path="url(#pdcd94aabd1)" style="fill: #4b97b8"/>
   </g>
   <g id="patch_12">
    <path d="M 89.659636 107.712 
L 89.947636 107.712 
Q 92.539636 107.712 92.539636 105.12 
L 92.539636 72.654545 
Q 92.539636 70.062545 89.947636 70.062545 
L 89.659636 70.062545 
Q 87.067636 70.062545 87.067636 72.654545 
L 87.067636 105.12 
Q 87.067636 107.712 89.659636 107.712 
z
" clip-path="url(#pdcd94aabd1)" style="fill: #4e9aba"/>
   </g>
   <g id="patch_13">
    <path d="M 98.037818 107.712 
L 98.325818 107.712 
Q 100.917818 107.712 100.917818 105.12 
L 100.917818 69.879273 
Q 100.917818 67.287273 98.325818 67.287273 
L 98.037818 67.287273 
Q 95.445818 67.287273 95.445818 69.879273 
L 95.445818 105.12 
Q 95.445818 107.712 98.037818 107.712 
z
" clip-path="url(#pdcd94aabd1)" style="fill: #529ebd"/>
   </g>
   <g id="patch_14">
    <path d="M 106.416 107.712 
L 106.704 107.712 
Q 109.296 107.712 109.296 105.12 
L 109.296 67.104 
Q 109.296 64.512 106.704 64.512 
L 106.416 64.512 
Q 103.824 64.512 103.824 67.104 
L 103.824 105.12 
Q 103.824 107.712 106.416 107.712 
z
" clip-path="url(#pdcd94aabd1)" style="fill: #55a1bf"/>
   </g>
   <g id="patch_15">
    <path d="M 54.72 30.816 
C 55.254649 30.816 55.767473 30.603582 56.145527 30.225527 
C 56.523582 29.847473 56.736 29.334649 56.736 28.8 
C 56.736 28.265351 56.523582 27.752527 56.145527 27.374473 
C 55.767473 26.996418 55.254649 26.784 54.72 26.784 
C 54.185351 26.784 53.672527 26.996418 53.294473 27.374473 
C 52.916418 27.752527 52.704 28.265351 52.704 28.8 
C 52.704 29.334649 52.916418 29.847473 53.294473 30.225527 
C 53.672527 30.603582 54.185351 30.816 54.72 30.816 
z
" clip-path="url(#pdcd94aabd1)" style="fill: #002030; opacity: 0.98"/>
   </g>
   <g id="patch_16">
    <path d="M 67.392 32.256 
C 67.850271 32.256 68.289834 32.073927 68.613881 31.749881 
C 68.937927 31.425834 69.12 30.986271 69.12 30.528 
C 69.12 30.069729 68.937927 29.630166 68.613881 29.306119 
C 68.289834 28.982073 67.850271 28.8 67.392 28.8 
C 66.933729 28.8 66.494166 28.982073 66.170119 29.306119 
C 65.846073 29.630166 65.664 30.069729 65.664 30.528 
C 65.664 30.986271 65.846073 31.425834 66.170119 31.749881 
C 66.494166 32.073927 66.933729 32.256 67.392 32.256 
z
" clip-path="url(#pdcd94aabd1)" style="fill: #6fb7d2; opacity: 0.98"/>
   </g>
   <g id="patch_17">
    <path d="M 76.608 33.5232 
C 77.096822 33.5232 77.56569 33.328989 77.911339 32.983339 
C 78.256989 32.63769 78.4512 32.168822 78.4512 31.68 
C 78.4512 31.191178 78.256989 30.72231 77.911339 30.376661 
C 77.56569 30.031011 77.096822 29.8368 76.608 29.8368 
C 76.119178 29.8368 75.65031 30.031011 75.304661 30.376661 
C 74.959011 30.72231 74.7648 31.191178 74.7648 31.68 
C 74.7648 32.168822 74.959011 32.63769 75.304661 32.983339 
C 75.65031 33.328989 76.119178 33.5232 76.608 33.5232 
z
" clip-path="url(#pdcd94aabd1)" style="fill: #002030; opacity: 0.98"/>
   </g>
   <g id="patch_18">
    <path d="M 86.4 35.136 
C 86.858271 35.136 87.297834 34.953927 87.621881 34.629881 
C 87.945927 34.305834 88.128 33.866271 88.128 33.408 
C 88.128 32.949729 87.945927 32.510166 87.621881 32.186119 
C 87.297834 31.862073 86.858271 31.68 86.4 31.68 
C 85.941729 31.68 85.502166 31.862073 85.178119 32.186119 
C 84.854073 32.510166 84.672 32.949729 84.672 33.408 
C 84.672 33.866271 84.854073 34.305834 85.178119 34.629881 
C 85.502166 34.953927 85.941729 35.136 86.4 35.136 
z
" clip-path="url(#pdcd94aabd1)" style="fill: #6fb7d2; opacity: 0.98"/>
   </g>
   <g id="patch_19">
    <path d="M 43.2 34.4448 
C 43.62772 34.4448 44.037978 34.274865 44.340422 33.972422 
C 44.642865 33.669978 44.8128 33.25972 44.8128 32.832 
C 44.8128 32.40428 44.642865 31.994022 44.340422 31.691578 
C 44.037978 31.389135 43.62772 31.2192 43.2 31.2192 
C 42.77228 31.2192 42.362022 31.389135 42.059578 31.691578 
C 41.757135 31.994022 41.5872 32.40428 41.5872 32.832 
C 41.5872 33.25972 41.757135 33.669978 42.059578 33.972422 
C 42.362022 34.274865 42.77228 34.4448 43.2 34.4448 
z
" clip-path="url(#pdcd94aabd1)" style="fill: #002030; opacity: 0.98"/>
   </g>
   <g id="patch_20">
    <path d="M 34.56 27.648 
C 35.018271 27.648 35.457834 27.465927 35.781881 27.141881 
C 36.105927 26.817834 36.288 26.378271 36.288 25.92 
C 36.288 25.461729 36.105927 25.022166 35.781881 24.698119 
C 35.457834 24.374073 35.018271 24.192 34.56 24.192 
C 34.101729 24.192 33.662166 24.374073 33.338119 24.698119 
C 33.014073 25.022166 32.832 25.461729 32.832 25.92 
C 32.832 26.378271 33.014073 26.817834 33.338119 27.141881 
C 33.662166 27.465927 34.101729 27.648 34.56 27.648 
z
" clip-path="url(#pdcd94aabd1)" style="fill: #6fb7d2; opacity: 0.98"/>
   </g>
   <g id="patch_21">
    <path d="M 95.04 56.448 
C 95.498271 56.448 95.937834 56.265927 96.261881 55.941881 
C 96.585927 55.617834 96.768 55.178271 96.768 54.72 
C 96.768 54.261729 96.585927 53.822166 96.261881 53.498119 
C 95.937834 53.174073 95.498271 52.992 95.04 52.992 
C 94.581729 52.992 94.142166 53.174073 93.818119 53.498119 
C 93.494073 53.822166 93.312 54.261729 93.312 54.72 
C 93.312 55.178271 93.494073 55.617834 93.818119 55.941881 
C 94.142166 56.265927 94.581729 56.448 95.04 56.448 
z
" clip-path="url(#pdcd94aabd1)" style="fill: #002030; opacity: 0.98"/>
   </g>
   <g id="patch_22">
    <path d="M 100.8 43.6608 
C 101.22772 43.6608 101.637978 43.490865 101.940422 43.188422 
C 102.242865 42.885978 102.4128 42.47572 102.4128 42.048 
C 102.4128 41.62028 102.242865 41.210022 101.940422 40.907578 
C 101.637978 40.605135 101.22772 40.4352 100.8 40.4352 
C 100.37228 40.4352 99.962022 40.605135 99.659578 40.907578 
C 99.357135 41.210022 99.1872 41.62028 99.1872 42.048 
C 99.1872 42.47572 99.357135 42.885978 99.659578 43.188422 
C 99.962022 43.490865 100.37228 43.6608 100.8 43.6608 
z
" clip-path="url(#pdcd94aabd1)" style="fill: #6fb7d2; opacity: 0.98"/>
   </g>
   <g id="patch_23">
    <path d="M 72 20.5056 
C 72.397168 20.5056 72.778123 20.347803 73.058963 20.066963 
C 73.339803 19.786123 73.4976 19.405168 73.4976 19.008 
C 73.4976 18.610832 73.339803 18.229877 73.058963 17.949037 
C 72.778123 17.668197 72.397168 17.5104 72 17.5104 
C 71.602832 17.5104 71.221877 17.668197 70.941037 17.949037 
C 70.660197 18.229877 70.5024 18.610832 70.5024 19.008 
C 70.5024 19.405168 70.660197 19.786123 70.941037 20.066963 
C 71.221877 20.347803 71.602832 20.5056 72 20.5056 
z
" clip-path="url(#pdcd94aabd1)" style="fill: #002030; opacity: 0.98"/>
   </g>
   <g id="patch_24">
    <path d="M 57.6 16.9344 
C 57.966617 16.9344 58.318267 16.788742 58.577504 16.529504 
C 58.836742 16.270267 58.9824 15.918617 58.9824 15.552 
C 58.9824 15.185383 58.836742 14.833733 58.577504 14.574496 
C 58.318267 14.315258 57.966617 14.1696 57.6 14.1696 
C 57.233383 14.1696 56.881733 14.315258 56.622496 14.574496 
C 56.363258 14.833733 56.2176 15.185383 56.2176 15.552 
C 56.2176 15.918617 56.363258 16.270267 56.622496 16.529504 
C 56.881733 16.788742 57.233383 16.9344 57.6 16.9344 
z
" clip-path="url(#pdcd94aabd1)" style="fill: #6fb7d2; opacity: 0.98"/>
   </g>
   <g id="patch_25">
    <path d="M 17.28 71.712 
C 17.967406 71.712 18.626751 71.438891 19.112821 70.952821 
C 19.598891 70.466751 19.872 69.807406 19.872 69.12 
C 19.872 68.432594 19.598891 67.773249 19.112821 67.287179 
C 18.626751 66.801109 17.967406 66.528 17.28 66.528 
C 16.592594 66.528 15.933249 66.801109 15.447179 67.287179 
C 14.961109 67.773249 14.688 68.432594 14.688 69.12 
C 14.688 69.807406 14.961109 70.466751 15.447179 70.952821 
C 15.933249 71.438891 16.592594 71.712 17.28 71.712 
z
" clip-path="url(#pdcd94aabd1)" style="fill: #002030"/>
   </g>
   <g id="patch_26">
    <path d="M 17.28 79.392 
C 17.967406 79.392 18.626751 79.118891 19.112821 78.632821 
C 19.598891 78.146751 19.872 77.487406 19.872 76.8 
C 19.872 76.112594 19.598891 75.453249 19.112821 74.967179 
C 18.626751 74.481109 17.967406 74.208 17.28 74.208 
C 16.592594 74.208 15.933249 74.481109 15.447179 74.967179 
C 14.961109 75.453249 14.688 76.112594 14.688 76.8 
C 14.688 77.487406 14.961109 78.146751 15.447179 78.632821 
C 15.933249 79.118891 16.592594 79.392 17.28 79.392 
z
" clip-path="url(#pdcd94aabd1)" style="fill: #6fb7d2"/>
   </g>
   <g id="patch_27">
    <path d="M 17.28 87.072 
C 17.967406 87.072 18.626751 86.798891 19.112821 86.312821 
C 19.598891 85.826751 19.872 85.167406 19.872 84.48 
C 19.872 83.792594 19.598891 83.133249 19.112821 82.647179 
C 18.626751 82.161109 17.967406 81.888 17.28 81.888 
C 16.592594 81.888 15.933249 82.161109 15.447179 82.647179 
C 14.961109 83.133249 14.688 83.792594 14.688 84.48 
C 14.688 85.167406 14.961109 85.826751 15.447179 86.312821 
C 15.933249 86.798891 16.592594 87.072 17.28 87.072 
z
" clip-path="url(#pdcd94aabd1)" style="fill: #002030"/>
   </g>
   <g id="patch_28">
    <path d="M 17.28 94.752 
C 17.967406 94.752 18.626751 94.478891 19.112821 93.992821 
C 19.598891 93.506751 19.872 92.847406 19.872 92.16 
C 19.872 91.472594 19.598891 90.813249 19.112821 90.327179 
C 18.626751 89.841109 17.967406 89.568 17.28 89.568 
C 16.592594 89.568 15.933249 89.841109 15.447179 90.327179 
C 14.961109 90.813249 14.688 91.472594 14.688 92.16 
C 14.688 92.847406 14.961109 93.506751 15.447179 93.992821 
C 15.933249 94.478891 16.592594 94.752 17.28 94.752 
z
" clip-path="url(#pdcd94aabd1)" style="fill: #002030"/>
   </g>
   <g id="patch_29">
    <path d="M 25.92 71.712 
C 26.607406 71.712 27.266751 71.438891 27.752821 70.952821 
C 28.238891 70.466751 28.512 69.807406 28.512 69.12 
C 28.512 68.432594 28.238891 67.773249 27.752821 67.287179 
C 27.266751 66.801109 26.607406 66.528 25.92 66.528 
C 25.232594 66.528 24.573249 66.801109 24.087179 67.287179 
C 23.601109 67.773249 23.328 68.432594 23.328 69.12 
C 23.328 69.807406 23.601109 70.466751 24.087179 70.952821 
C 24.573249 71.438891 25.232594 71.712 25.92 71.712 
z
" clip-path="url(#pdcd94aabd1)" style="fill: #6fb7d2"/>
   </g>
   <g id="patch_30">
    <path d="M 25.92 79.392 
C 26.607406 79.392 27.266751 79.118891 27.752821 78.632821 
C 28.238891 78.146751 28.512 77.487406 28.512 76.8 
C 28.512 76.112594 28.238891 75.453249 27.752821 74.967179 
C 27.266751 74.481109 26.607406 74.208 25.92 74.208 
C 25.232594 74.208 24.573249 74.481109 24.087179 74.967179 
C 23.601109 75.453249 23.328 76.112594 23.328 76.8 
C 23.328 77.487406 23.601109 78.146751 24.087179 78.632821 
C 24.573249 79.118891 25.232594 79.392 25.92 79.392 
z
" clip-path="url(#pdcd94aabd1)" style="fill: #002030"/>
   </g>
   <g id="patch_31">
    <path d="M 25.92 87.072 
C 26.607406 87.072 27.266751 86.798891 27.752821 86.312821 
C 28.238891 85.826751 28.512 85.167406 28.512 84.48 
C 28.512 83.792594 28.238891 83.133249 27.752821 82.647179 
C 27.266751 82.161109 26.607406 81.888 25.92 81.888 
C 25.232594 81.888 24.573249 82.161109 24.087179 82.647179 
C 23.601109 83.133249 23.328 83.792594 23.328 84.48 
C 23.328 85.167406 23.601109 85.826751 24.087179 86.312821 
C 24.573249 86.798891 25.232594 87.072 25.92 87.072 
z
" clip-path="url(#pdcd94aabd1)" style="fill: #6fb7d2"/>
   </g>
   <g id="patch_32">
    <path d="M 25.92 94.752 
C 26.607406 94.752 27.266751 94.478891 27.752821 93.992821 
C 28.238891 93.506751 28.512 92.847406 28.512 92.16 
C 28.512 91.472594 28.238891 90.813249 27.752821 90.327179 
C 27.266751 89.841109 26.607406 89.568 25.92 89.568 
C 25.232594 89.568 24.573249 89.841109 24.087179 90.327179 
C 23.601109 90.813249 23.328 91.472594 23.328 92.16 
C 23.328 92.847406 23.601109 93.506751 24.087179 93.992821 
C 24.573249 94.478891 25.232594 94.752 25.92 94.752 
z
" clip-path="url(#pdcd94aabd1)" style="fill: #002030"/>
   </g>
   <g id="patch_33">
    <path d="M 34.56 71.712 
C 35.247406 71.712 35.906751 71.438891 36.392821 70.952821 
C 36.878891 70.466751 37.152 69.807406 37.152 69.12 
C 37.152 68.432594 36.878891 67.773249 36.392821 67.287179 
C 35.906751 66.801109 35.247406 66.528 34.56 66.528 
C 33.872594 66.528 33.213249 66.801109 32.727179 67.287179 
C 32.241109 67.773249 31.968 68.432594 31.968 69.12 
C 31.968 69.807406 32.241109 70.466751 32.727179 70.952821 
C 33.213249 71.438891 33.872594 71.712 34.56 71.712 
z
" clip-path="url(#pdcd94aabd1)" style="fill: #002030"/>
   </g>
   <g id="patch_34">
    <path d="M 34.56 79.392 
C 35.247406 79.392 35.906751 79.118891 36.392821 78.632821 
C 36.878891 78.146751 37.152 77.487406 37.152 76.8 
C 37.152 76.112594 36.878891 75.453249 36.392821 74.967179 
C 35.906751 74.481109 35.247406 74.208 34.56 74.208 
C 33.872594 74.208 33.213249 74.481109 32.727179 74.967179 
C 32.241109 75.453249 31.968 76.112594 31.968 76.8 
C 31.968 77.487406 32.241109 78.146751 32.727179 78.632821 
C 33.213249 79.118891 33.872594 79.392 34.56 79.392 
z
" clip-path="url(#pdcd94aabd1)" style="fill: #6fb7d2"/>
   </g>
   <g id="patch_35">
    <path d="M 34.56 87.072 
C 35.247406 87.072 35.906751 86.798891 36.392821 86.312821 
C 36.878891 85.826751 37.152 85.167406 37.152 84.48 
C 37.152 83.792594 36.878891 83.133249 36.392821 82.647179 
C 35.906751 82.161109 35.247406 81.888 34.56 81.888 
C 33.872594 81.888 33.213249 82.161109 32.727179 82.647179 
C 32.241109 83.133249 31.968 83.792594 31.968 84.48 
C 31.968 85.167406 32.241109 85.826751 32.727179 86.312821 
C 33.213249 86.798891 33.872594 87.072 34.56 87.072 
z
" clip-path="url(#pdcd94aabd1)" style="fill: #002030"/>
   </g>
   <g id="patch_36">
    <path d="M 34.56 94.752 
C 35.247406 94.752 35.906751 94.478891 36.392821 93.992821 
C 36.878891 93.506751 37.152 92.847406 37.152 92.16 
C 37.152 91.472594 36.878891 90.813249 36.392821 90.327179 
C 35.906751 89.841109 35.247406 89.568 34.56 89.568 
C 33.872594 89.568 33.213249 89.841109 32.727179 90.327179 
C 32.241109 90.813249 31.968 91.472594 31.968 92.16 
C 31.968 92.847406 32.241109 93.506751 32.727179 93.992821 
C 33.213249 94.478891 33.872594 94.752 34.56 94.752 
z
" clip-path="url(#pdcd94aabd1)" style="fill: #002030"/>
   </g>
   <g id="patch_37">
    <path d="M 43.2 71.712 
C 43.887406 71.712 44.546751 71.438891 45.032821 70.952821 
C 45.518891 70.466751 45.792 69.807406 45.792 69.12 
C 45.792 68.432594 45.518891 67.773249 45.032821 67.287179 
C 44.546751 66.801109 43.887406 66.528 43.2 66.528 
C 42.512594 66.528 41.853249 66.801109 41.367179 67.287179 
C 40.881109 67.773249 40.608 68.432594 40.608 69.12 
C 40.608 69.807406 40.881109 70.466751 41.367179 70.952821 
C 41.853249 71.438891 42.512594 71.712 43.2 71.712 
z
" clip-path="url(#pdcd94aabd1)" style="fill: #6fb7d2"/>
   </g>
   <g id="patch_38">
    <path d="M 43.2 79.392 
C 43.887406 79.392 44.546751 79.118891 45.032821 78.632821 
C 45.518891 78.146751 45.792 77.487406 45.792 76.8 
C 45.792 76.112594 45.518891 75.453249 45.032821 74.967179 
C 44.546751 74.481109 43.887406 74.208 43.2 74.208 
C 42.512594 74.208 41.853249 74.481109 41.367179 74.967179 
C 40.881109 75.453249 40.608 76.112594 40.608 76.8 
C 40.608 77.487406 40.881109 78.146751 41.367179 78.632821 
C 41.853249 79.118891 42.512594 79.392 43.2 79.392 
z
" clip-path="url(#pdcd94aabd1)" style="fill: #002030"/>
   </g>
   <g id="patch_39">
    <path d="M 43.2 87.072 
C 43.887406 87.072 44.546751 86.798891 45.032821 86.312821 
C 45.518891 85.826751 45.792 85.167406 45.792 84.48 
C 45.792 83.792594 45.518891 83.133249 45.032821 82.647179 
C 44.546751 82.161109 43.887406 81.888 43.2 81.888 
C 42.512594 81.888 41.853249 82.161109 41.367179 82.647179 
C 40.881109 83.133249 40.608 83.792594 40.608 84.48 
C 40.608 85.167406 40.881109 85.826751 41.367179 86.312821 
C 41.853249 86.798891 42.512594 87.072 43.2 87.072 
z
" clip-path="url(#pdcd94aabd1)" style="fill: #6fb7d2"/>
   </g>
   <g id="patch_40">
    <path d="M 43.2 94.752 
C 43.887406 94.752 44.546751 94.478891 45.032821 93.992821 
C 45.518891 93.506751 45.792 92.847406 45.792 92.16 
C 45.792 91.472594 45.518891 90.813249 45.032821 90.327179 
C 44.546751 89.841109 43.887406 89.568 43.2 89.568 
C 42.512594 89.568 41.853249 89.841109 41.367179 90.327179 
C 40.881109 90.813249 40.608 91.472594 40.608 92.16 
C 40.608 92.847406 40.881109 93.506751 41.367179 93.992821 
C 41.853249 94.478891 42.512594 94.752 43.2 94.752 
z
" clip-path="url(#pdcd94aabd1)" style="fill: #002030"/>
   </g>
   <g id="patch_41">
    <path d="M 51.84 71.712 
C 52.527406 71.712 53.186751 71.438891 53.672821 70.952821 
C 54.158891 70.466751 54.432 69.807406 54.432 69.12 
C 54.432 68.432594 54.158891 67.773249 53.672821 67.287179 
C 53.186751 66.801109 52.527406 66.528 51.84 66.528 
C 51.152594 66.528 50.493249 66.801109 50.007179 67.287179 
C 49.521109 67.773249 49.248 68.432594 49.248 69.12 
C 49.248 69.807406 49.521109 70.466751 50.007179 70.952821 
C 50.493249 71.438891 51.152594 71.712 51.84 71.712 
z
" clip-path="url(#pdcd94aabd1)" style="fill: #002030"/>
   </g>
   <g id="patch_42">
    <path d="M 51.84 79.392 
C 52.527406 79.392 53.186751 79.118891 53.672821 78.632821 
C 54.158891 78.146751 54.432 77.487406 54.432 76.8 
C 54.432 76.112594 54.158891 75.453249 53.672821 74.967179 
C 53.186751 74.481109 52.527406 74.208 51.84 74.208 
C 51.152594 74.208 50.493249 74.481109 50.007179 74.967179 
C 49.521109 75.453249 49.248 76.112594 49.248 76.8 
C 49.248 77.487406 49.521109 78.146751 50.007179 78.632821 
C 50.493249 79.118891 51.152594 79.392 51.84 79.392 
z
" clip-path="url(#pdcd94aabd1)" style="fill: #6fb7d2"/>
   </g>
   <g id="patch_43">
    <path d="M 51.84 87.072 
C 52.527406 87.072 53.186751 86.798891 53.672821 86.312821 
C 54.158891 85.826751 54.432 85.167406 54.432 84.48 
C 54.432 83.792594 54.158891 83.133249 53.672821 82.647179 
C 53.186751 82.161109 52.527406 81.888 51.84 81.888 
C 51.152594 81.888 50.493249 82.161109 50.007179 82.647179 
C 49.521109 83.133249 49.248 83.792594 49.248 84.48 
C 49.248 85.167406 49.521109 85.826751 50.007179 86.312821 
C 50.493249 86.798891 51.152594 87.072 51.84 87.072 
z
" clip-path="url(#pdcd94aabd1)" style="fill: #002030"/>
   </g>
   <g id="patch_44">
    <path d="M 51.84 94.752 
C 52.527406 94.752 53.186751 94.478891 53.672821 93.992821 
C 54.158891 93.506751 54.432 92.847406 54.432 92.16 
C 54.432 91.472594 54.158891 90.813249 53.672821 90.327179 
C 53.186751 89.841109 52.527406 89.568 51.84 89.568 
C 51.152594 89.568 50.493249 89.841109 50.007179 90.327179 
C 49.521109 90.813249 49.248 91.472594 49.248 92.16 
C 49.248 92.847406 49.521109 93.506751 50.007179 93.992821 
C 50.493249 94.478891 51.152594 94.752 51.84 94.752 
z
" clip-path="url(#pdcd94aabd1)" style="fill: #002030"/>
   </g>
   <g id="patch_45">
    <path d="M 51.84 72.288 
C 52.680163 72.288 53.486029 71.9542 54.080114 71.360114 
C 54.6742 70.766029 55.008 69.960163 55.008 69.12 
C 55.008 68.279837 54.6742 67.473971 54.080114 66.879886 
C 53.486029 66.2858 52.680163 65.952 51.84 65.952 
C 50.999837 65.952 50.193971 66.2858 49.599886 66.879886 
C 49.0058 67.473971 48.672 68.279837 48.672 69.12 
C 48.672 69.960163 49.0058 70.766029 49.599886 71.360114 
C 50.193971 71.9542 50.999837 72.288 51.84 72.288 
z
" clip-path="url(#pdcd94aabd1)" style="fill: #c85028"/>
   </g>
   <g id="patch_46">
    <path d="M 60.48 67.488 
C 61.320163 67.488 62.126029 67.1542 62.720114 66.560114 
C 63.3142 65.966029 63.648 65.160163 63.648 64.32 
C 63.648 63.479837 63.3142 62.673971 62.720114 62.079886 
C 62.126029 61.4858 61.320163 61.152 60.48 61.152 
C 59.639837 61.152 58.833971 61.4858 58.239886 62.079886 
C 57.6458 62.673971 57.312 63.479837 57.312 64.32 
C 57.312 65.160163 57.6458 65.966029 58.239886 66.560114 
C 58.833971 67.1542 59.639837 67.488 60.48 67.488 
z
" clip-path="url(#pdcd94aabd1)" style="fill: #c85028"/>
   </g>
   <g id="patch_47">
    <path d="M 69.12 62.688 
C 69.960163 62.688 70.766029 62.3542 71.360114 61.760114 
C 71.9542 61.166029 72.288 60.360163 72.288 59.52 
C 72.288 58.679837 71.9542 57.873971 71.360114 57.279886 
C 70.766029 56.6858 69.960163 56.352 69.12 56.352 
C 68.279837 56.352 67.473971 56.6858 66.879886 57.279886 
C 66.2858 57.873971 65.952 58.679837 65.952 59.52 
C 65.952 60.360163 66.2858 61.166029 66.879886 61.760114 
C 67.473971 62.3542 68.279837 62.688 69.12 62.688 
z
" clip-path="url(#pdcd94aabd1)" style="fill: #c85028"/>
   </g>
   <g id="patch_48">
    <path d="M 77.76 57.888 
C 78.600163 57.888 79.406029 57.5542 80.000114 56.960114 
C 80.5942 56.366029 80.928 55.560163 80.928 54.72 
C 80.928 53.879837 80.5942 53.073971 80.000114 52.479886 
C 79.406029 51.8858 78.600163 51.552 77.76 51.552 
C 76.919837 51.552 76.113971 51.8858 75.519886 52.479886 
C 74.9258 53.073971 74.592 53.879837 74.592 54.72 
C 74.592 55.560163 74.9258 56.366029 75.519886 56.960114 
C 76.113971 57.5542 76.919837 57.888 77.76 57.888 
z
" clip-path="url(#pdcd94aabd1)" style="fill: #c85028"/>
   </g>
   <g id="patch_49">
    <path d="M 86.4 53.088 
C 87.240163 53.088 88.046029 52.7542 88.640114 52.160114 
C 89.2342 51.566029 89.568 50.760163 89.568 49.92 
C 89.568 49.079837 89.2342 48.273971 88.640114 47.679886 
C 88.046029 47.0858 87.240163 46.752 86.4 46.752 
C 85.559837 46.752 84.753971 47.0858 84.159886 47.679886 
C 83.5658 48.273971 83.232 49.079837 83.232 49.92 
C 83.232 50.760163 83.5658 51.566029 84.159886 52.160114 
C 84.753971 52.7542 85.559837 53.088 86.4 53.088 
z
" clip-path="url(#pdcd94aabd1)" style="fill: #c85028"/>
   </g>
   <g id="patch_50">
    <path d="M 95.04 47.712 
C 95.727406 47.712 96.386751 47.438891 96.872821 46.952821 
C 97.358891 46.466751 97.632 45.807406 97.632 45.12 
C 97.632 44.432594 97.358891 43.773249 96.872821 43.287179 
C 96.386751 42.801109 95.727406 42.528 95.04 42.528 
C 94.352594 42.528 93.693249 42.801109 93.207179 43.287179 
C 92.721109 43.773249 92.448 44.432594 92.448 45.12 
C 92.448 45.807406 92.721109 46.466751 93.207179 46.952821 
C 93.693249 47.438891 94.352594 47.712 95.04 47.712 
z
" clip-path="url(#pdcd94aabd1)" style="fill: #e07b3a"/>
   </g>
   <g id="patch_51">
    <path d="M 103.68 42.912 
C 104.367406 42.912 105.026751 42.638891 105.512821 42.152821 
C 105.998891 41.666751 106.272 41.007406 106.272 40.32 
C 106.272 39.632594 105.998891 38.973249 105.512821 38.487179 
C 105.026751 38.001109 104.367406 37.728 103.68 37.728 
C 102.992594 37.728 102.333249 38.001109 101.847179 38.487179 
C 101.361109 38.973249 101.088 39.632594 101.088 40.32 
C 101.088 41.007406 101.361109 41.666751 101.847179 42.152821 
C 102.333249 42.638891 102.992594 42.912 103.68 42.912 
z
" clip-path="url(#pdcd94aabd1)" style="fill: #e07b3a"/>
   </g>
   <g id="patch_52">
    <path d="M 19.092685 54.225405 
C 21.252152 56.798957 24.348812 58.410976 27.695562 58.703779 
C 31.042313 58.996582 34.371852 57.946782 36.945405 55.787315 
C 39.518957 53.627848 41.130976 50.531188 41.423779 47.184438 
C 41.716582 43.837687 40.666782 40.508148 38.507315 37.934595 
L 28.8 46.08 
z
" clip-path="url(#pdcd94aabd1)" style="fill: #c85028"/>
   </g>
   <g id="patch_53">
    <path d="M 38.507315 37.934595 
C 37.317935 36.517148 35.832402 35.377258 34.155419 34.595268 
C 32.478435 33.813277 30.650347 33.408 28.8 33.408 
C 26.949653 33.408 25.121565 33.813277 23.444581 34.595268 
C 21.767598 35.377258 20.282065 36.517148 19.092685 37.934595 
L 28.8 46.08 
z
" clip-path="url(#pdcd94aabd1)" style="fill: #2f7fa3"/>
   </g>
   <g id="patch_54">
    <path d="M 19.092685 37.934595 
C 17.178134 40.216268 16.128 43.101488 16.128 46.08 
C 16.128 49.058512 17.178134 51.943732 19.092685 54.225405 
L 28.8 46.08 
z
" clip-path="url(#pdcd94aabd1)" style="fill: #ffffff"/>
   </g>
   <g id="line2d_1">
    <path d="M 57.6 63.36 
L 74.88 54.72 
L 92.16 47.808 
" clip-path="url(#pdcd94aabd1)" style="fill: none; stroke: #002030; stroke-width: 10; stroke-linecap: round"/>
   </g>
   <g id="line2d_2">
    <path d="M 54.72 23.04 
L 68.544 23.04 
" clip-path="url(#pdcd94aabd1)" style="fill: none; stroke: #002030; stroke-width: 6; stroke-linecap: round"/>
   </g>
   <g id="line2d_3">
    <path d="M 55.646032 26.496 
L 67.617968 19.584 
" clip-path="url(#pdcd94aabd1)" style="fill: none; stroke: #002030; stroke-width: 6; stroke-linecap: round"/>
   </g>
   <g id="line2d_4">
    <path d="M 58.176 29.025968 
L 65.088 17.054032 
" clip-path="url(#pdcd94aabd1)" style="fill: none; stroke: #002030; stroke-width: 6; stroke-linecap: round"/>
   </g>
   <g id="line2d_5">
    <path d="M 61.632 29.952 
L 61.632 16.128 
" clip-path="url(#pdcd94aabd1)" style="fill: none; stroke: #002030; stroke-width: 6; stroke-linecap: round"/>
   </g>
   <g id="line2d_6">
    <path d="M 65.088 29.025968 
L 58.176 17.054032 
" clip-path="url(#pdcd94aabd1)" style="fill: none; stroke: #002030; stroke-width: 6; stroke-linecap: round"/>
   </g>
   <g id="line2d_7">
    <path d="M 67.617968 26.496 
L 55.646032 19.584 
" clip-path="url(#pdcd94aabd1)" style="fill: none; stroke: #002030; stroke-width: 6; stroke-linecap: round"/>
   </g>
   <g id="patch_55">
    <path d="M 103.68 48.384 
C 104.291028 48.384 104.877112 48.141236 105.309174 47.709174 
C 105.741236 47.277112 105.984 46.691028 105.984 46.08 
C 105.984 45.468972 105.741236 44.882888 105.309174 44.450826 
C 104.877112 44.018764 104.291028 43.776 103.68 43.776 
C 103.068972 43.776 102.482888 44.018764 102.050826 44.450826 
C 101.618764 44.882888 101.376 45.468972 101.376 46.08 
C 101.376 46.691028 101.618764 47.277112 102.050826 47.709174 
C 102.482888 48.141236 103.068972 48.384 103.68 48.384 
z
" clip-path="url(#pdcd94aabd1)" style="fill: #c85028"/>
   </g>
   <g id="patch_56">
    <path d="M 99.648 36.864 
C 100.259028 36.864 100.845112 36.621236 101.277174 36.189174 
C 101.709236 35.757112 101.952 35.171028 101.952 34.56 
C 101.952 33.948972 101.709236 33.362888 101.277174 32.930826 
C 100.845112 32.498764 100.259028 32.256 99.648 32.256 
C 99.036972 32.256 98.450888 32.498764 98.018826 32.930826 
C 97.586764 33.362888 97.344 33.948972 97.344 34.56 
C 97.344 35.171028 97.586764 35.757112 98.018826 36.189174 
C 98.450888 36.621236 99.036972 36.864 99.648 36.864 
z
" clip-path="url(#pdcd94aabd1)" style="fill: #e07b3a"/>
   </g>
   <g id="patch_57">
    <path d="M 89.28 33.984 
C 89.891028 33.984 90.477112 33.741236 90.909174 33.309174 
C 91.341236 32.877112 91.584 32.291028 91.584 31.68 
C 91.584 31.068972 91.341236 30.482888 90.909174 30.050826 
C 90.477112 29.618764 89.891028 29.376 89.28 29.376 
C 88.668972 29.376 88.082888 29.618764 87.650826 30.050826 
C 87.218764 30.482888 86.976 31.068972 86.976 31.68 
C 86.976 32.291028 87.218764 32.877112 87.650826 33.309174 
C 88.082888 33.741236 88.668972 33.984 89.28 33.984 
z
" clip-path="url(#pdcd94aabd1)" style="fill: #6fb7d2"/>
   </g>
   <g id="patch_58">
    <path d="M 80.64 28.224 
C 81.251028 28.224 81.837112 27.981236 82.269174 27.549174 
C 82.701236 27.117112 82.944 26.531028 82.944 25.92 
C 82.944 25.308972 82.701236 24.722888 82.269174 24.290826 
C 81.837112 23.858764 81.251028 23.616 80.64 23.616 
C 80.028972 23.616 79.442888 23.858764 79.010826 24.290826 
C 78.578764 24.722888 78.336 25.308972 78.336 25.92 
C 78.336 26.531028 78.578764 27.117112 79.010826 27.549174 
C 79.442888 27.981236 80.028972 28.224 80.64 28.224 
z
" clip-path="url(#pdcd94aabd1)" style="fill: #002030"/>
   </g>
   <g id="patch_59">
    <path d="M 74.88 58.752 
C 75.949299 58.752 76.974946 58.327163 77.731055 57.571055 
C 78.487163 56.814946 78.912 55.789299 78.912 54.72 
C 78.912 53.650701 78.487163 52.625054 77.731055 51.868945 
C 76.974946 51.112837 75.949299 50.688 74.88 50.688 
C 73.810701 50.688 72.785054 51.112837 72.028945 51.868945 
C 71.272837 52.625054 70.848 53.650701 70.848 54.72 
C 70.848 55.789299 71.272837 56.814946 72.028945 57.571055 
C 72.785054 58.327163 73.810701 58.752 74.88 58.752 
z
" clip-path="url(#pdcd94aabd1)" style="fill: #002030"/>
   </g>
   <g id="patch_60">
    <path d="M 92.16 51.84 
C 93.229299 51.84 94.254946 51.415163 95.011055 50.659055 
C 95.767163 49.902946 96.192 48.877299 96.192 47.808 
C 96.192 46.738701 95.767163 45.713054 95.011055 44.956945 
C 94.254946 44.200837 93.229299 43.776 92.16 43.776 
C 91.090701 43.776 90.065054 44.200837 89.308945 44.956945 
C 88.552837 45.713054 88.128 46.738701 88.128 47.808 
C 88.128 48.877299 88.552837 49.902946 89.308945 50.659055 
C 90.065054 51.415163 91.090701 51.84 92.16 51.84 
z
" clip-path="url(#pdcd94aabd1)" style="fill: #002030"/>
   </g>
   <g id="patch_61">
    <path d="M 61.632 25.344 
C 62.243028 25.344 62.829112 25.101236 63.261174 24.669174 
C 63.693236 24.237112 63.936 23.651028 63.936 23.04 
C 63.936 22.428972 63.693236 21.842888 63.261174 21.410826 
C 62.829112 20.978764 62.243028 20.736 61.632 20.736 
C 61.020972 20.736 60.434888 20.978764 60.002826 21.410826 
C 59.570764 21.842888 59.328 22.428972 59.328 23.04 
C 59.328 23.651028 59.570764 24.237112 60.002826 24.669174 
C 60.434888 25.101236 61.020972 25.344 61.632 25.344 
z
" clip-path="url(#pdcd94aabd1)" style="fill: #ffffff"/>
   </g>
   <g id="patch_62">
    <path d="M 74.88 56.736 
C 75.414649 56.736 75.927473 56.523582 76.305527 56.145527 
C 76.683582 55.767473 76.896 55.254649 76.896 54.72 
C 76.896 54.185351 76.683582 53.672527 76.305527 53.294473 
C 75.927473 52.916418 75.414649 52.704 74.88 52.704 
C 74.345351 52.704 73.832527 52.916418 73.454473 53.294473 
C 73.076418 53.672527 72.864 54.185351 72.864 54.72 
C 72.864 55.254649 73.076418 55.767473 73.454473 56.145527 
C 73.832527 56.523582 74.345351 56.736 74.88 56.736 
z
" clip-path="url(#pdcd94aabd1)" style="fill: #ffffff"/>
   </g>
   <g id="patch_63">
    <path d="M 92.16 49.824 
C 92.694649 49.824 93.207473 49.611582 93.585527 49.233527 
C 93.963582 48.855473 94.176 48.342649 94.176 47.808 
C 94.176 47.273351 93.963582 46.760527 93.585527 46.382473 
C 93.207473 46.004418 92.694649 45.792 92.16 45.792 
C 91.625351 45.792 91.112527 46.004418 90.734473 46.382473 
C 90.356418 46.760527 90.144 47.273351 90.144 47.808 
C 90.144 48.342649 90.356418 48.855473 90.734473 49.233527 
C 91.112527 49.611582 91.625351 49.824 92.16 49.824 
z
" clip-path="url(#pdcd94aabd1)" style="fill: #ffffff"/>
   </g>
   <g id="patch_64">
    <path d="M 60.48 118.08 
C 75.755699 118.08 90.407801 112.010901 101.209351 101.209351 
C 112.010901 90.407801 118.08 75.755699 118.08 60.48 
C 118.08 45.204301 112.010901 30.552199 101.209351 19.750649 
C 90.407801 8.949099 75.755699 2.88 60.48 2.88 
C 45.204301 2.88 30.552199 8.949099 19.750649 19.750649 
C 8.949099 30.552199 2.88 45.204301 2.88 60.48 
C 2.88 75.755699 8.949099 90.407801 19.750649 101.209351 
C 30.552199 112.010901 45.204301 118.08 60.48 118.08 
L 60.48 118.08 
z
" clip-path="url(#pe4856d5944)" style="fill: none; stroke: #002030; stroke-width: 18; stroke-linejoin: miter"/>
   </g>
  </g>
  <g id="axes_2">
   <g id="text_1">
    <!-- scikit-plots -->
    <g style="fill: #002030" transform="translate(129.6 71.5175) scale(0.4 -0.4)">
     <defs>
      <path id="DejaVuSans-Bold-73" d="M 3272 3391 
L 3272 2541 
Q 2913 2691 2578 2766 
Q 2244 2841 1947 2841 
Q 1628 2841 1473 2761 
Q 1319 2681 1319 2516 
Q 1319 2381 1436 2309 
Q 1553 2238 1856 2203 
L 2053 2175 
Q 2913 2066 3209 1816 
Q 3506 1566 3506 1031 
Q 3506 472 3093 190 
Q 2681 -91 1863 -91 
Q 1516 -91 1145 -36 
Q 775 19 384 128 
L 384 978 
Q 719 816 1070 734 
Q 1422 653 1784 653 
Q 2113 653 2278 743 
Q 2444 834 2444 1013 
Q 2444 1163 2330 1236 
Q 2216 1309 1875 1350 
L 1678 1375 
Q 931 1469 631 1722 
Q 331 1975 331 2491 
Q 331 3047 712 3315 
Q 1094 3584 1881 3584 
Q 2191 3584 2531 3537 
Q 2872 3491 3272 3391 
z
" transform="scale(0.015625)"/>
      <path id="DejaVuSans-Bold-63" d="M 3366 3391 
L 3366 2478 
Q 3138 2634 2908 2709 
Q 2678 2784 2431 2784 
Q 1963 2784 1702 2511 
Q 1441 2238 1441 1747 
Q 1441 1256 1702 982 
Q 1963 709 2431 709 
Q 2694 709 2930 787 
Q 3166 866 3366 1019 
L 3366 103 
Q 3103 6 2833 -42 
Q 2563 -91 2291 -91 
Q 1344 -91 809 395 
Q 275 881 275 1747 
Q 275 2613 809 3098 
Q 1344 3584 2291 3584 
Q 2566 3584 2833 3536 
Q 3100 3488 3366 3391 
z
" transform="scale(0.015625)"/>
      <path id="DejaVuSans-Bold-69" d="M 538 3500 
L 1656 3500 
L 1656 0 
L 538 0 
L 538 3500 
z
M 538 4863 
L 1656 4863 
L 1656 3950 
L 538 3950 
L 538 4863 
z
" transform="scale(0.015625)"/>
      <path id="DejaVuSans-Bold-6b" d="M 538 4863 
L 1656 4863 
L 1656 2216 
L 2944 3500 
L 4244 3500 
L 2534 1894 
L 4378 0 
L 3022 0 
L 1656 1459 
L 1656 0 
L 538 0 
L 538 4863 
z
" transform="scale(0.015625)"/>
      <path id="DejaVuSans-Bold-74" d="M 1759 4494 
L 1759 3500 
L 2913 3500 
L 2913 2700 
L 1759 2700 
L 1759 1216 
Q 1759 972 1856 886 
Q 1953 800 2241 800 
L 2816 800 
L 2816 0 
L 1856 0 
Q 1194 0 917 276 
Q 641 553 641 1216 
L 641 2700 
L 84 2700 
L 84 3500 
L 641 3500 
L 641 4494 
L 1759 4494 
z
" transform="scale(0.015625)"/>
      <path id="DejaVuSans-Bold-2d" d="M 347 2297 
L 2309 2297 
L 2309 1388 
L 347 1388 
L 347 2297 
z
" transform="scale(0.015625)"/>
      <path id="DejaVuSans-Bold-70" d="M 1656 506 
L 1656 -1331 
L 538 -1331 
L 538 3500 
L 1656 3500 
L 1656 2988 
Q 1888 3294 2169 3439 
Q 2450 3584 2816 3584 
Q 3463 3584 3878 3070 
Q 4294 2556 4294 1747 
Q 4294 938 3878 423 
Q 3463 -91 2816 -91 
Q 2450 -91 2169 54 
Q 1888 200 1656 506 
z
M 2400 2772 
Q 2041 2772 1848 2508 
Q 1656 2244 1656 1747 
Q 1656 1250 1848 986 
Q 2041 722 2400 722 
Q 2759 722 2948 984 
Q 3138 1247 3138 1747 
Q 3138 2247 2948 2509 
Q 2759 2772 2400 2772 
z
" transform="scale(0.015625)"/>
      <path id="DejaVuSans-Bold-6c" d="M 538 4863 
L 1656 4863 
L 1656 0 
L 538 0 
L 538 4863 
z
" transform="scale(0.015625)"/>
      <path id="DejaVuSans-Bold-6f" d="M 2203 2784 
Q 1831 2784 1636 2517 
Q 1441 2250 1441 1747 
Q 1441 1244 1636 976 
Q 1831 709 2203 709 
Q 2569 709 2762 976 
Q 2956 1244 2956 1747 
Q 2956 2250 2762 2517 
Q 2569 2784 2203 2784 
z
M 2203 3584 
Q 3106 3584 3614 3096 
Q 4122 2609 4122 1747 
Q 4122 884 3614 396 
Q 3106 -91 2203 -91 
Q 1297 -91 786 396 
Q 275 884 275 1747 
Q 275 2609 786 3096 
Q 1297 3584 2203 3584 
z
" transform="scale(0.015625)"/>
     </defs>
     <use xlink:href="#DejaVuSans-Bold-73"/>
     <use xlink:href="#DejaVuSans-Bold-63" transform="translate(59.521484 0)"/>
     <use xlink:href="#DejaVuSans-Bold-69" transform="translate(118.798828 0)"/>
     <use xlink:href="#DejaVuSans-Bold-6b" transform="translate(153.076172 0)"/>
     <use xlink:href="#DejaVuSans-Bold-69" transform="translate(219.580078 0)"/>
     <use xlink:href="#DejaVuSans-Bold-74" transform="translate(253.857422 0)"/>
     <use xlink:href="#DejaVuSans-Bold-2d" transform="translate(301.660156 0)"/>
     <use xlink:href="#DejaVuSans-Bold-70" transform="translate(343.164062 0)"/>
     <use xlink:href="#DejaVuSans-Bold-6c" transform="translate(414.746094 0)"/>
     <use xlink:href="#DejaVuSans-Bold-6f" transform="translate(449.023438 0)"/>
     <use xlink:href="#DejaVuSans-Bold-74" transform="translate(517.724609 0)"/>
     <use xlink:href="#DejaVuSans-Bold-73" transform="translate(565.527344 0)"/>
    </g>
   </g>
  </g>
 </g>
 <defs>
  <clipPath id="pe4856d5944">
   <rect x="0" y="0" width="120.96" height="120.96"/>
  </clipPath>
  <clipPath id="pdcd94aabd1">
   <path d="M 60.48 114.048 
C 74.6864 114.048 88.312855 108.403738 98.358296 98.358296 
C 108.403738 88.312855 114.048 74.6864 114.048 60.48 
C 114.048 46.2736 108.403738 32.647145 98.358296 22.601704 
C 88.312855 12.556262 74.6864 6.912 60.48 6.912 
C 46.2736 6.912 32.647145 12.556262 22.601704 22.601704 
C 12.556262 32.647145 6.912 46.2736 6.912 60.48 
C 6.912 74.6864 12.556262 88.312855 22.601704 98.358296 
C 32.647145 108.403738 46.2736 114.048 60.48 114.048 
z
"/>
  </clipPath>
 </defs>
</svg>
