<?xml version="1.0" encoding="utf-8" standalone="no"?>
<!DOCTYPE svg PUBLIC "-//W3C//DTD SVG 1.1//EN"
  "http://www.w3.org/Graphics/SVG/1.1/DTD/svg11.dtd">
<svg xmlns:xlink="http://www.w3.org/1999/xlink" width="288pt" height="288pt" viewBox="0 0 288 288" xmlns="http://www.w3.org/2000/svg" version="1.1">
 <metadata>
  <rdf:RDF xmlns:dc="http://purl.org/dc/elements/1.1/" xmlns:cc="http://creativecommons.org/ns#" xmlns:rdf="http://www.w3.org/1999/02/22-rdf-syntax-ns#">
   <cc:Work>
    <dc:type rdf:resource="http://purl.org/dc/dcmitype/StillImage"/>
    <dc:date>2026-02-05T08:18:56.999119</dc:date>
    <dc:format>image/svg+xml</dc:format>
    <dc:creator>
     <cc:Agent>
      <dc:title>Matplotlib v3.10.8, https://matplotlib.org/</dc:title>
     </cc:Agent>
    </dc:creator>
   </cc:Work>
  </rdf:RDF>
 </metadata>
 <defs>
  <style type="text/css">*{stroke-linejoin: round; stroke-linecap: butt}</style>
 </defs>
 <g id="figure_1">
  <g id="patch_1">
   <path d="M 0 288 
L 288 288 
L 288 0 
L 0 0 
L 0 288 
z
" style="fill: none"/>
  </g>
  <g id="axes_1">
   <g id="patch_2">
    <path d="M 144 271.542857 
C 177.824761 271.542857 210.268701 258.104137 234.186419 234.186419 
C 258.104137 210.268701 271.542857 177.824761 271.542857 144 
C 271.542857 110.175239 258.104137 77.731299 234.186419 53.813581 
C 210.268701 29.895863 177.824761 16.457143 144 16.457143 
C 110.175239 16.457143 77.731299 29.895863 53.813581 53.813581 
C 29.895863 77.731299 16.457143 110.175239 16.457143 144 
C 16.457143 177.824761 29.895863 210.268701 53.813581 234.186419 
C 77.731299 258.104137 110.175239 271.542857 144 271.542857 
z
" clip-path="url(#p2c2c917422)" style="fill: #ffffff"/>
   </g>
   <g id="patch_3">
    <path d="M 33.942857 256.457143 
L 34.628571 256.457143 
Q 40.8 256.457143 40.8 250.285714 
L 40.8 237.942857 
Q 40.8 231.771429 34.628571 231.771429 
L 33.942857 231.771429 
Q 27.771429 231.771429 27.771429 237.942857 
L 27.771429 250.285714 
Q 27.771429 256.457143 33.942857 256.457143 
z
" clip-path="url(#pdcb36aae85)" style="fill: #2f7fa3"/>
   </g>
   <g id="patch_4">
    <path d="M 53.890909 256.457143 
L 54.576623 256.457143 
Q 60.748052 256.457143 60.748052 250.285714 
L 60.748052 230.836364 
Q 60.748052 224.664935 54.576623 224.664935 
L 53.890909 224.664935 
Q 47.719481 224.664935 47.719481 230.836364 
L 47.719481 250.285714 
Q 47.719481 256.457143 53.890909 256.457143 
z
" clip-path="url(#pdcb36aae85)" style="fill: #3282a6"/>
   </g>
   <g id="patch_5">
    <path d="M 73.838961 256.457143 
L 74.524675 256.457143 
Q 80.696104 256.457143 80.696104 250.285714 
L 80.696104 223.72987 
Q 80.696104 217.558442 74.524675 217.558442 
L 73.838961 217.558442 
Q 67.667532 217.558442 67.667532 223.72987 
L 67.667532 250.285714 
Q 67.667532 256.457143 73.838961 256.457143 
z
" clip-path="url(#pdcb36aae85)" style="fill: #3685a8"/>
   </g>
   <g id="patch_6">
    <path d="M 93.787013 256.457143 
L 94.472727 256.457143 
Q 100.644156 256.457143 100.644156 250.285714 
L 100.644156 216.623377 
Q 100.644156 210.451948 94.472727 210.451948 
L 93.787013 210.451948 
Q 87.615584 210.451948 87.615584 216.623377 
L 87.615584 250.285714 
Q 87.615584 256.457143 93.787013 256.457143 
z
" clip-path="url(#pdcb36aae85)" style="fill: #3988ab"/>
   </g>
   <g id="patch_7">
    <path d="M 113.735065 256.457143 
L 114.420779 256.457143 
Q 120.592208 256.457143 120.592208 250.285714 
L 120.592208 209.516883 
Q 120.592208 203.345455 114.420779 203.345455 
L 113.735065 203.345455 
Q 107.563636 203.345455 107.563636 209.516883 
L 107.563636 250.285714 
Q 107.563636 256.457143 113.735065 256.457143 
z
" clip-path="url(#pdcb36aae85)" style="fill: #3d8bad"/>
   </g>
   <g id="patch_8">
    <path d="M 133.683117 256.457143 
L 134.368831 256.457143 
Q 140.54026 256.457143 140.54026 250.285714 
L 140.54026 202.41039 
Q 140.54026 196.238961 134.368831 196.238961 
L 133.683117 196.238961 
Q 127.511688 196.238961 127.511688 202.41039 
L 127.511688 250.285714 
Q 127.511688 256.457143 133.683117 256.457143 
z
" clip-path="url(#pdcb36aae85)" style="fill: #408eb0"/>
   </g>
   <g id="patch_9">
    <path d="M 153.631169 256.457143 
L 154.316883 256.457143 
Q 160.488312 256.457143 160.488312 250.285714 
L 160.488312 195.303896 
Q 160.488312 189.132468 154.316883 189.132468 
L 153.631169 189.132468 
Q 147.45974 189.132468 147.45974 195.303896 
L 147.45974 250.285714 
Q 147.45974 256.457143 153.631169 256.457143 
z
" clip-path="url(#pdcb36aae85)" style="fill: #4491b2"/>
   </g>
   <g id="patch_10">
    <path d="M 173.579221 256.457143 
L 174.264935 256.457143 
Q 180.436364 256.457143 180.436364 250.285714 
L 180.436364 188.197403 
Q 180.436364 182.025974 174.264935 182.025974 
L 173.579221 182.025974 
Q 167.407792 182.025974 167.407792 188.197403 
L 167.407792 250.285714 
Q 167.407792 256.457143 173.579221 256.457143 
z
" clip-path="url(#pdcb36aae85)" style="fill: #4794b5"/>
   </g>
   <g id="patch_11">
    <path d="M 193.527273 256.457143 
L 194.212987 256.457143 
Q 200.384416 256.457143 200.384416 250.285714 
L 200.384416 181.090909 
Q 200.384416 174.919481 194.212987 174.919481 
L 193.527273 174.919481 
Q 187.355844 174.919481 187.355844 181.090909 
L 187.355844 250.285714 
Q 187.355844 256.457143 193.527273 256.457143 
z
" clip-path="url(#pdcb36aae85)" style="fill: #4b97b8"/>
   </g>
   <g id="patch_12">
    <path d="M 213.475325 256.457143 
L 214.161039 256.457143 
Q 220.332468 256.457143 220.332468 250.285714 
L 220.332468 173.984416 
Q 220.332468 167.812987 214.161039 167.812987 
L 213.475325 167.812987 
Q 207.303896 167.812987 207.303896 173.984416 
L 207.303896 250.285714 
Q 207.303896 256.457143 213.475325 256.457143 
z
" clip-path="url(#pdcb36aae85)" style="fill: #4e9aba"/>
   </g>
   <g id="patch_13">
    <path d="M 233.423377 256.457143 
L 234.109091 256.457143 
Q 240.280519 256.457143 240.280519 250.285714 
L 240.280519 166.877922 
Q 240.280519 160.706494 234.109091 160.706494 
L 233.423377 160.706494 
Q 227.251948 160.706494 227.251948 166.877922 
L 227.251948 250.285714 
Q 227.251948 256.457143 233.423377 256.457143 
z
" clip-path="url(#pdcb36aae85)" style="fill: #529ebd"/>
   </g>
   <g id="patch_14">
    <path d="M 253.371429 256.457143 
L 254.057143 256.457143 
Q 260.228571 256.457143 260.228571 250.285714 
L 260.228571 159.771429 
Q 260.228571 153.6 254.057143 153.6 
L 253.371429 153.6 
Q 247.2 153.6 247.2 159.771429 
L 247.2 250.285714 
Q 247.2 256.457143 253.371429 256.457143 
z
" clip-path="url(#pdcb36aae85)" style="fill: #55a1bf"/>
   </g>
   <g id="patch_15">
    <path d="M 91.690891 193.273103 
C 93.031838 193.273103 94.318044 192.740339 95.266237 191.792146 
C 96.214429 190.843953 96.747193 189.557748 96.747193 188.216801 
C 96.747193 186.875854 96.214429 185.589648 95.266237 184.641455 
C 94.318044 183.693262 93.031838 183.160498 91.690891 183.160498 
C 90.349944 183.160498 89.063738 183.693262 88.115546 184.641455 
C 87.167353 185.589648 86.634589 186.875854 86.634589 188.216801 
C 86.634589 189.557748 87.167353 190.843953 88.115546 191.792146 
C 89.063738 192.740339 90.349944 193.273103 91.690891 193.273103 
z
" clip-path="url(#pdcb36aae85)" style="fill: #002030; opacity: 0.95"/>
   </g>
   <g id="patch_16">
    <path d="M 165.964915 98.477744 
C 167.192926 98.477744 168.370806 97.98985 169.23914 97.121515 
C 170.107475 96.253181 170.595369 95.075301 170.595369 93.84729 
C 170.595369 92.619279 170.107475 91.4414 169.23914 90.573065 
C 168.370806 89.70473 167.192926 89.216837 165.964915 89.216837 
C 164.736905 89.216837 163.559025 89.70473 162.69069 90.573065 
C 161.822356 91.4414 161.334462 92.619279 161.334462 93.84729 
C 161.334462 95.075301 161.822356 96.253181 162.69069 97.121515 
C 163.559025 97.98985 164.736905 98.477744 165.964915 98.477744 
z
" clip-path="url(#pdcb36aae85)" style="fill: #6fb7d2; opacity: 0.95"/>
   </g>
   <g id="patch_17">
    <path d="M 75.516578 246.725449 
C 76.872273 246.725449 78.172624 246.186826 79.131244 245.228206 
C 80.089865 244.269585 80.628488 242.969234 80.628488 241.61354 
C 80.628488 240.257846 80.089865 238.957495 79.131244 237.998874 
C 78.172624 237.040254 76.872273 236.501631 75.516578 236.501631 
C 74.160884 236.501631 72.860533 237.040254 71.901913 237.998874 
C 70.943292 238.957495 70.404669 240.257846 70.404669 241.61354 
C 70.404669 242.969234 70.943292 244.269585 71.901913 245.228206 
C 72.860533 246.186826 74.160884 246.725449 75.516578 246.725449 
z
" clip-path="url(#pdcb36aae85)" style="fill: #6fb7d2; opacity: 0.95"/>
   </g>
   <g id="patch_18">
    <path d="M 94.62185 114.249366 
C 95.893411 114.249366 97.113063 113.74417 98.012192 112.845041 
C 98.911321 111.945911 99.416518 110.726259 99.416518 109.454698 
C 99.416518 108.183138 98.911321 106.963485 98.012192 106.064356 
C 97.113063 105.165227 95.893411 104.66003 94.62185 104.66003 
C 93.350289 104.66003 92.130637 105.165227 91.231508 106.064356 
C 90.332378 106.963485 89.827182 108.183138 89.827182 109.454698 
C 89.827182 110.726259 90.332378 111.945911 91.231508 112.845041 
C 92.130637 113.74417 93.350289 114.249366 94.62185 114.249366 
z
" clip-path="url(#pdcb36aae85)" style="fill: #6fb7d2; opacity: 0.95"/>
   </g>
   <g id="patch_19">
    <path d="M 129.217271 111.209805 
C 130.37315 111.209805 131.481844 110.750569 132.299174 109.933239 
C 133.116504 109.115909 133.57574 108.007215 133.57574 106.851336 
C 133.57574 105.695456 133.116504 104.586763 132.299174 103.769432 
C 131.481844 102.952102 130.37315 102.492866 129.217271 102.492866 
C 128.061391 102.492866 126.952698 102.952102 126.135367 103.769432 
C 125.318037 104.586763 124.858801 105.695456 124.858801 106.851336 
C 124.858801 108.007215 125.318037 109.115909 126.135367 109.933239 
C 126.952698 110.750569 128.061391 111.209805 129.217271 111.209805 
z
" clip-path="url(#pdcb36aae85)" style="fill: #6fb7d2; opacity: 0.95"/>
   </g>
   <g id="patch_20">
    <path d="M 127.056751 118.797179 
C 128.123303 118.797179 129.146315 118.373433 129.900481 117.619267 
C 130.654647 116.865101 131.078392 115.842089 131.078392 114.775538 
C 131.078392 113.708986 130.654647 112.685974 129.900481 111.931808 
C 129.146315 111.177642 128.123303 110.753896 127.056751 110.753896 
C 125.990199 110.753896 124.967187 111.177642 124.213021 111.931808 
C 123.458855 112.685974 123.03511 113.708986 123.03511 114.775538 
C 123.03511 115.842089 123.458855 116.865101 124.213021 117.619267 
C 124.967187 118.373433 125.990199 118.797179 127.056751 118.797179 
z
" clip-path="url(#pdcb36aae85)" style="fill: #002030; opacity: 0.95"/>
   </g>
   <g id="patch_21">
    <path d="M 246.568803 107.364805 
C 247.506152 107.364805 248.405236 106.992392 249.068042 106.329586 
C 249.730848 105.66678 250.10326 104.767697 250.10326 103.830348 
C 250.10326 102.892999 249.730848 101.993915 249.068042 101.331109 
C 248.405236 100.668303 247.506152 100.295891 246.568803 100.295891 
C 245.631454 100.295891 244.732371 100.668303 244.069565 101.331109 
C 243.406759 101.993915 243.034346 102.892999 243.034346 103.830348 
C 243.034346 104.767697 243.406759 105.66678 244.069565 106.329586 
C 244.732371 106.992392 245.631454 107.364805 246.568803 107.364805 
z
" clip-path="url(#pdcb36aae85)" style="fill: #002030; opacity: 0.95"/>
   </g>
   <g id="patch_22">
    <path d="M 110.199369 146.252305 
C 111.440651 146.252305 112.63126 145.759138 113.508979 144.881419 
C 114.386698 144.0037 114.879864 142.813091 114.879864 141.571809 
C 114.879864 140.330527 114.386698 139.139918 113.508979 138.262199 
C 112.63126 137.38448 111.440651 136.891314 110.199369 136.891314 
C 108.958087 136.891314 107.767478 137.38448 106.889759 138.262199 
C 106.01204 139.139918 105.518873 140.330527 105.518873 141.571809 
C 105.518873 142.813091 106.01204 144.0037 106.889759 144.881419 
C 107.767478 145.759138 108.958087 146.252305 110.199369 146.252305 
z
" clip-path="url(#pdcb36aae85)" style="fill: #6fb7d2; opacity: 0.95"/>
   </g>
   <g id="patch_23">
    <path d="M 229.842522 89.252757 
C 231.359314 89.252757 232.814186 88.65013 233.88672 87.577596 
C 234.959254 86.505062 235.561882 85.05019 235.561882 83.533398 
C 235.561882 82.016606 234.959254 80.561734 233.88672 79.4892 
C 232.814186 78.416666 231.359314 77.814038 229.842522 77.814038 
C 228.32573 77.814038 226.870858 78.416666 225.798324 79.4892 
C 224.72579 80.561734 224.123162 82.016606 224.123162 83.533398 
C 224.123162 85.05019 224.72579 86.505062 225.798324 87.577596 
C 226.870858 88.65013 228.32573 89.252757 229.842522 89.252757 
z
" clip-path="url(#pdcb36aae85)" style="fill: #6fb7d2; opacity: 0.95"/>
   </g>
   <g id="patch_24">
    <path d="M 104.096168 57.013926 
C 105.713704 57.013926 107.265207 56.371272 108.408978 55.227502 
C 109.552748 54.083731 110.195402 52.532228 110.195402 50.914692 
C 110.195402 49.297157 109.552748 47.745654 108.408978 46.601883 
C 107.265207 45.458113 105.713704 44.815459 104.096168 44.815459 
C 102.478633 44.815459 100.92713 45.458113 99.783359 46.601883 
C 98.639589 47.745654 97.996935 49.297157 97.996935 50.914692 
C 97.996935 52.532228 98.639589 54.083731 99.783359 55.227502 
C 100.92713 56.371272 102.478633 57.013926 104.096168 57.013926 
z
" clip-path="url(#pdcb36aae85)" style="fill: #002030; opacity: 0.95"/>
   </g>
   <g id="patch_25">
    <path d="M 137.616798 107.013054 
C 139.08318 107.013054 140.4897 106.430454 141.526589 105.393565 
C 142.563478 104.356677 143.146078 102.950156 143.146078 101.483774 
C 143.146078 100.017392 142.563478 98.610871 141.526589 97.573983 
C 140.4897 96.537094 139.08318 95.954494 137.616798 95.954494 
C 136.150416 95.954494 134.743895 96.537094 133.707006 97.573983 
C 132.670118 98.610871 132.087518 100.017392 132.087518 101.483774 
C 132.087518 102.950156 132.670118 104.356677 133.707006 105.393565 
C 134.743895 106.430454 136.150416 107.013054 137.616798 107.013054 
z
" clip-path="url(#pdcb36aae85)" style="fill: #002030; opacity: 0.95"/>
   </g>
   <g id="patch_26">
    <path d="M 57.810061 234.74108 
C 58.862025 234.74108 59.871046 234.32313 60.614897 233.579278 
C 61.358748 232.835427 61.776698 231.826407 61.776698 230.774442 
C 61.776698 229.722477 61.358748 228.713457 60.614897 227.969606 
C 59.871046 227.225755 58.862025 226.807805 57.810061 226.807805 
C 56.758096 226.807805 55.749076 227.225755 55.005225 227.969606 
C 54.261373 228.713457 53.843423 229.722477 53.843423 230.774442 
C 53.843423 231.826407 54.261373 232.835427 55.005225 233.579278 
C 55.749076 234.32313 56.758096 234.74108 57.810061 234.74108 
z
" clip-path="url(#pdcb36aae85)" style="fill: #002030; opacity: 0.95"/>
   </g>
   <g id="patch_27">
    <path d="M 78.589977 63.566352 
C 79.631057 63.566352 80.629637 63.152726 81.365791 62.416572 
C 82.101946 61.680417 82.515571 60.681837 82.515571 59.640757 
C 82.515571 58.599678 82.101946 57.601098 81.365791 56.864943 
C 80.629637 56.128788 79.631057 55.715163 78.589977 55.715163 
C 77.548897 55.715163 76.550317 56.128788 75.814163 56.864943 
C 75.078008 57.601098 74.664383 58.599678 74.664383 59.640757 
C 74.664383 60.681837 75.078008 61.680417 75.814163 62.416572 
C 76.550317 63.152726 77.548897 63.566352 78.589977 63.566352 
z
" clip-path="url(#pdcb36aae85)" style="fill: #002030; opacity: 0.95"/>
   </g>
   <g id="patch_28">
    <path d="M 183.455772 71.10508 
C 184.446971 71.10508 185.397706 70.711272 186.098589 70.010389 
C 186.799472 69.309506 187.193279 68.358771 187.193279 67.367572 
C 187.193279 66.376374 186.799472 65.425639 186.098589 64.724756 
C 185.397706 64.023873 184.446971 63.630065 183.455772 63.630065 
C 182.464574 63.630065 181.513839 64.023873 180.812955 64.724756 
C 180.112072 65.425639 179.718265 66.376374 179.718265 67.367572 
C 179.718265 68.358771 180.112072 69.309506 180.812955 70.010389 
C 181.513839 70.711272 182.464574 71.10508 183.455772 71.10508 
z
" clip-path="url(#pdcb36aae85)" style="fill: #6fb7d2; opacity: 0.95"/>
   </g>
   <g id="patch_29">
    <path d="M 175.693444 170.220631 
C 177.208646 170.220631 178.661993 169.618635 179.733402 168.547226 
C 180.804811 167.475817 181.406807 166.02247 181.406807 164.507268 
C 181.406807 162.992067 180.804811 161.53872 179.733402 160.46731 
C 178.661993 159.395901 177.208646 158.793905 175.693444 158.793905 
C 174.178243 158.793905 172.724896 159.395901 171.653486 160.46731 
C 170.582077 161.53872 169.980081 162.992067 169.980081 164.507268 
C 169.980081 166.02247 170.582077 167.475817 171.653486 168.547226 
C 172.724896 169.618635 174.178243 170.220631 175.693444 170.220631 
z
" clip-path="url(#pdcb36aae85)" style="fill: #002030; opacity: 0.95"/>
   </g>
   <g id="patch_30">
    <path d="M 41.142857 170.742857 
C 42.779539 170.742857 44.349407 170.092596 45.506716 168.935288 
C 46.664025 167.777979 47.314286 166.208111 47.314286 164.571429 
C 47.314286 162.934747 46.664025 161.364879 45.506716 160.20757 
C 44.349407 159.050261 42.779539 158.4 41.142857 158.4 
C 39.506175 158.4 37.936307 159.050261 36.778998 160.20757 
C 35.621689 161.364879 34.971429 162.934747 34.971429 164.571429 
C 34.971429 166.208111 35.621689 167.777979 36.778998 168.935288 
C 37.936307 170.092596 39.506175 170.742857 41.142857 170.742857 
z
" clip-path="url(#pdcb36aae85)" style="fill: #002030"/>
   </g>
   <g id="patch_31">
    <path d="M 41.142857 189.028571 
C 42.779539 189.028571 44.349407 188.378311 45.506716 187.221002 
C 46.664025 186.063693 47.314286 184.493825 47.314286 182.857143 
C 47.314286 181.220461 46.664025 179.650593 45.506716 178.493284 
C 44.349407 177.335975 42.779539 176.685714 41.142857 176.685714 
C 39.506175 176.685714 37.936307 177.335975 36.778998 178.493284 
C 35.621689 179.650593 34.971429 181.220461 34.971429 182.857143 
C 34.971429 184.493825 35.621689 186.063693 36.778998 187.221002 
C 37.936307 188.378311 39.506175 189.028571 41.142857 189.028571 
z
" clip-path="url(#pdcb36aae85)" style="fill: #6fb7d2"/>
   </g>
   <g id="patch_32">
    <path d="M 41.142857 207.314286 
C 42.779539 207.314286 44.349407 206.664025 45.506716 205.506716 
C 46.664025 204.349407 47.314286 202.779539 47.314286 201.142857 
C 47.314286 199.506175 46.664025 197.936307 45.506716 196.778998 
C 44.349407 195.621689 42.779539 194.971429 41.142857 194.971429 
C 39.506175 194.971429 37.936307 195.621689 36.778998 196.778998 
C 35.621689 197.936307 34.971429 199.506175 34.971429 201.142857 
C 34.971429 202.779539 35.621689 204.349407 36.778998 205.506716 
C 37.936307 206.664025 39.506175 207.314286 41.142857 207.314286 
z
" clip-path="url(#pdcb36aae85)" style="fill: #002030"/>
   </g>
   <g id="patch_33">
    <path d="M 41.142857 225.6 
C 42.779539 225.6 44.349407 224.949739 45.506716 223.79243 
C 46.664025 222.635121 47.314286 221.065253 47.314286 219.428571 
C 47.314286 217.791889 46.664025 216.222021 45.506716 215.064712 
C 44.349407 213.907404 42.779539 213.257143 41.142857 213.257143 
C 39.506175 213.257143 37.936307 213.907404 36.778998 215.064712 
C 35.621689 216.222021 34.971429 217.791889 34.971429 219.428571 
C 34.971429 221.065253 35.621689 222.635121 36.778998 223.79243 
C 37.936307 224.949739 39.506175 225.6 41.142857 225.6 
z
" clip-path="url(#pdcb36aae85)" style="fill: #002030"/>
   </g>
   <g id="patch_34">
    <path d="M 61.714286 170.742857 
C 63.350968 170.742857 64.920836 170.092596 66.078145 168.935288 
C 67.235454 167.777979 67.885714 166.208111 67.885714 164.571429 
C 67.885714 162.934747 67.235454 161.364879 66.078145 160.20757 
C 64.920836 159.050261 63.350968 158.4 61.714286 158.4 
C 60.077604 158.4 58.507736 159.050261 57.350427 160.20757 
C 56.193118 161.364879 55.542857 162.934747 55.542857 164.571429 
C 55.542857 166.208111 56.193118 167.777979 57.350427 168.935288 
C 58.507736 170.092596 60.077604 170.742857 61.714286 170.742857 
z
" clip-path="url(#pdcb36aae85)" style="fill: #6fb7d2"/>
   </g>
   <g id="patch_35">
    <path d="M 61.714286 189.028571 
C 63.350968 189.028571 64.920836 188.378311 66.078145 187.221002 
C 67.235454 186.063693 67.885714 184.493825 67.885714 182.857143 
C 67.885714 181.220461 67.235454 179.650593 66.078145 178.493284 
C 64.920836 177.335975 63.350968 176.685714 61.714286 176.685714 
C 60.077604 176.685714 58.507736 177.335975 57.350427 178.493284 
C 56.193118 179.650593 55.542857 181.220461 55.542857 182.857143 
C 55.542857 184.493825 56.193118 186.063693 57.350427 187.221002 
C 58.507736 188.378311 60.077604 189.028571 61.714286 189.028571 
z
" clip-path="url(#pdcb36aae85)" style="fill: #002030"/>
   </g>
   <g id="patch_36">
    <path d="M 61.714286 207.314286 
C 63.350968 207.314286 64.920836 206.664025 66.078145 205.506716 
C 67.235454 204.349407 67.885714 202.779539 67.885714 201.142857 
C 67.885714 199.506175 67.235454 197.936307 66.078145 196.778998 
C 64.920836 195.621689 63.350968 194.971429 61.714286 194.971429 
C 60.077604 194.971429 58.507736 195.621689 57.350427 196.778998 
C 56.193118 197.936307 55.542857 199.506175 55.542857 201.142857 
C 55.542857 202.779539 56.193118 204.349407 57.350427 205.506716 
C 58.507736 206.664025 60.077604 207.314286 61.714286 207.314286 
z
" clip-path="url(#pdcb36aae85)" style="fill: #6fb7d2"/>
   </g>
   <g id="patch_37">
    <path d="M 61.714286 225.6 
C 63.350968 225.6 64.920836 224.949739 66.078145 223.79243 
C 67.235454 222.635121 67.885714 221.065253 67.885714 219.428571 
C 67.885714 217.791889 67.235454 216.222021 66.078145 215.064712 
C 64.920836 213.907404 63.350968 213.257143 61.714286 213.257143 
C 60.077604 213.257143 58.507736 213.907404 57.350427 215.064712 
C 56.193118 216.222021 55.542857 217.791889 55.542857 219.428571 
C 55.542857 221.065253 56.193118 222.635121 57.350427 223.79243 
C 58.507736 224.949739 60.077604 225.6 61.714286 225.6 
z
" clip-path="url(#pdcb36aae85)" style="fill: #002030"/>
   </g>
   <g id="patch_38">
    <path d="M 82.285714 170.742857 
C 83.922396 170.742857 85.492264 170.092596 86.649573 168.935288 
C 87.806882 167.777979 88.457143 166.208111 88.457143 164.571429 
C 88.457143 162.934747 87.806882 161.364879 86.649573 160.20757 
C 85.492264 159.050261 83.922396 158.4 82.285714 158.4 
C 80.649032 158.4 79.079164 159.050261 77.921855 160.20757 
C 76.764546 161.364879 76.114286 162.934747 76.114286 164.571429 
C 76.114286 166.208111 76.764546 167.777979 77.921855 168.935288 
C 79.079164 170.092596 80.649032 170.742857 82.285714 170.742857 
z
" clip-path="url(#pdcb36aae85)" style="fill: #002030"/>
   </g>
   <g id="patch_39">
    <path d="M 82.285714 189.028571 
C 83.922396 189.028571 85.492264 188.378311 86.649573 187.221002 
C 87.806882 186.063693 88.457143 184.493825 88.457143 182.857143 
C 88.457143 181.220461 87.806882 179.650593 86.649573 178.493284 
C 85.492264 177.335975 83.922396 176.685714 82.285714 176.685714 
C 80.649032 176.685714 79.079164 177.335975 77.921855 178.493284 
C 76.764546 179.650593 76.114286 181.220461 76.114286 182.857143 
C 76.114286 184.493825 76.764546 186.063693 77.921855 187.221002 
C 79.079164 188.378311 80.649032 189.028571 82.285714 189.028571 
z
" clip-path="url(#pdcb36aae85)" style="fill: #6fb7d2"/>
   </g>
   <g id="patch_40">
    <path d="M 82.285714 207.314286 
C 83.922396 207.314286 85.492264 206.664025 86.649573 205.506716 
C 87.806882 204.349407 88.457143 202.779539 88.457143 201.142857 
C 88.457143 199.506175 87.806882 197.936307 86.649573 196.778998 
C 85.492264 195.621689 83.922396 194.971429 82.285714 194.971429 
C 80.649032 194.971429 79.079164 195.621689 77.921855 196.778998 
C 76.764546 197.936307 76.114286 199.506175 76.114286 201.142857 
C 76.114286 202.779539 76.764546 204.349407 77.921855 205.506716 
C 79.079164 206.664025 80.649032 207.314286 82.285714 207.314286 
z
" clip-path="url(#pdcb36aae85)" style="fill: #002030"/>
   </g>
   <g id="patch_41">
    <path d="M 82.285714 225.6 
C 83.922396 225.6 85.492264 224.949739 86.649573 223.79243 
C 87.806882 222.635121 88.457143 221.065253 88.457143 219.428571 
C 88.457143 217.791889 87.806882 216.222021 86.649573 215.064712 
C 85.492264 213.907404 83.922396 213.257143 82.285714 213.257143 
C 80.649032 213.257143 79.079164 213.907404 77.921855 215.064712 
C 76.764546 216.222021 76.114286 217.791889 76.114286 219.428571 
C 76.114286 221.065253 76.764546 222.635121 77.921855 223.79243 
C 79.079164 224.949739 80.649032 225.6 82.285714 225.6 
z
" clip-path="url(#pdcb36aae85)" style="fill: #002030"/>
   </g>
   <g id="patch_42">
    <path d="M 102.857143 170.742857 
C 104.493825 170.742857 106.063693 170.092596 107.221002 168.935288 
C 108.378311 167.777979 109.028571 166.208111 109.028571 164.571429 
C 109.028571 162.934747 108.378311 161.364879 107.221002 160.20757 
C 106.063693 159.050261 104.493825 158.4 102.857143 158.4 
C 101.220461 158.4 99.650593 159.050261 98.493284 160.20757 
C 97.335975 161.364879 96.685714 162.934747 96.685714 164.571429 
C 96.685714 166.208111 97.335975 167.777979 98.493284 168.935288 
C 99.650593 170.092596 101.220461 170.742857 102.857143 170.742857 
z
" clip-path="url(#pdcb36aae85)" style="fill: #6fb7d2"/>
   </g>
   <g id="patch_43">
    <path d="M 102.857143 189.028571 
C 104.493825 189.028571 106.063693 188.378311 107.221002 187.221002 
C 108.378311 186.063693 109.028571 184.493825 109.028571 182.857143 
C 109.028571 181.220461 108.378311 179.650593 107.221002 178.493284 
C 106.063693 177.335975 104.493825 176.685714 102.857143 176.685714 
C 101.220461 176.685714 99.650593 177.335975 98.493284 178.493284 
C 97.335975 179.650593 96.685714 181.220461 96.685714 182.857143 
C 96.685714 184.493825 97.335975 186.063693 98.493284 187.221002 
C 99.650593 188.378311 101.220461 189.028571 102.857143 189.028571 
z
" clip-path="url(#pdcb36aae85)" style="fill: #002030"/>
   </g>
   <g id="patch_44">
    <path d="M 102.857143 207.314286 
C 104.493825 207.314286 106.063693 206.664025 107.221002 205.506716 
C 108.378311 204.349407 109.028571 202.779539 109.028571 201.142857 
C 109.028571 199.506175 108.378311 197.936307 107.221002 196.778998 
C 106.063693 195.621689 104.493825 194.971429 102.857143 194.971429 
C 101.220461 194.971429 99.650593 195.621689 98.493284 196.778998 
C 97.335975 197.936307 96.685714 199.506175 96.685714 201.142857 
C 96.685714 202.779539 97.335975 204.349407 98.493284 205.506716 
C 99.650593 206.664025 101.220461 207.314286 102.857143 207.314286 
z
" clip-path="url(#pdcb36aae85)" style="fill: #6fb7d2"/>
   </g>
   <g id="patch_45">
    <path d="M 102.857143 225.6 
C 104.493825 225.6 106.063693 224.949739 107.221002 223.79243 
C 108.378311 222.635121 109.028571 221.065253 109.028571 219.428571 
C 109.028571 217.791889 108.378311 216.222021 107.221002 215.064712 
C 106.063693 213.907404 104.493825 213.257143 102.857143 213.257143 
C 101.220461 213.257143 99.650593 213.907404 98.493284 215.064712 
C 97.335975 216.222021 96.685714 217.791889 96.685714 219.428571 
C 96.685714 221.065253 97.335975 222.635121 98.493284 223.79243 
C 99.650593 224.949739 101.220461 225.6 102.857143 225.6 
z
" clip-path="url(#pdcb36aae85)" style="fill: #002030"/>
   </g>
   <g id="patch_46">
    <path d="M 123.428571 170.742857 
C 125.065253 170.742857 126.635121 170.092596 127.79243 168.935288 
C 128.949739 167.777979 129.6 166.208111 129.6 164.571429 
C 129.6 162.934747 128.949739 161.364879 127.79243 160.20757 
C 126.635121 159.050261 125.065253 158.4 123.428571 158.4 
C 121.791889 158.4 120.222021 159.050261 119.064712 160.20757 
C 117.907404 161.364879 117.257143 162.934747 117.257143 164.571429 
C 117.257143 166.208111 117.907404 167.777979 119.064712 168.935288 
C 120.222021 170.092596 121.791889 170.742857 123.428571 170.742857 
z
" clip-path="url(#pdcb36aae85)" style="fill: #002030"/>
   </g>
   <g id="patch_47">
    <path d="M 123.428571 189.028571 
C 125.065253 189.028571 126.635121 188.378311 127.79243 187.221002 
C 128.949739 186.063693 129.6 184.493825 129.6 182.857143 
C 129.6 181.220461 128.949739 179.650593 127.79243 178.493284 
C 126.635121 177.335975 125.065253 176.685714 123.428571 176.685714 
C 121.791889 176.685714 120.222021 177.335975 119.064712 178.493284 
C 117.907404 179.650593 117.257143 181.220461 117.257143 182.857143 
C 117.257143 184.493825 117.907404 186.063693 119.064712 187.221002 
C 120.222021 188.378311 121.791889 189.028571 123.428571 189.028571 
z
" clip-path="url(#pdcb36aae85)" style="fill: #6fb7d2"/>
   </g>
   <g id="patch_48">
    <path d="M 123.428571 207.314286 
C 125.065253 207.314286 126.635121 206.664025 127.79243 205.506716 
C 128.949739 204.349407 129.6 202.779539 129.6 201.142857 
C 129.6 199.506175 128.949739 197.936307 127.79243 196.778998 
C 126.635121 195.621689 125.065253 194.971429 123.428571 194.971429 
C 121.791889 194.971429 120.222021 195.621689 119.064712 196.778998 
C 117.907404 197.936307 117.257143 199.506175 117.257143 201.142857 
C 117.257143 202.779539 117.907404 204.349407 119.064712 205.506716 
C 120.222021 206.664025 121.791889 207.314286 123.428571 207.314286 
z
" clip-path="url(#pdcb36aae85)" style="fill: #002030"/>
   </g>
   <g id="patch_49">
    <path d="M 123.428571 225.6 
C 125.065253 225.6 126.635121 224.949739 127.79243 223.79243 
C 128.949739 222.635121 129.6 221.065253 129.6 219.428571 
C 129.6 217.791889 128.949739 216.222021 127.79243 215.064712 
C 126.635121 213.907404 125.065253 213.257143 123.428571 213.257143 
C 121.791889 213.257143 120.222021 213.907404 119.064712 215.064712 
C 117.907404 216.222021 117.257143 217.791889 117.257143 219.428571 
C 117.257143 221.065253 117.907404 222.635121 119.064712 223.79243 
C 120.222021 224.949739 121.791889 225.6 123.428571 225.6 
z
" clip-path="url(#pdcb36aae85)" style="fill: #002030"/>
   </g>
   <g id="patch_50">
    <path d="M 123.428571 172.114286 
C 125.428961 172.114286 127.347688 171.319523 128.762177 169.905034 
C 130.176666 168.490545 130.971429 166.571818 130.971429 164.571429 
C 130.971429 162.571039 130.176666 160.652312 128.762177 159.237823 
C 127.347688 157.823334 125.428961 157.028571 123.428571 157.028571 
C 121.428182 157.028571 119.509455 157.823334 118.094966 159.237823 
C 116.680477 160.652312 115.885714 162.571039 115.885714 164.571429 
C 115.885714 166.571818 116.680477 168.490545 118.094966 169.905034 
C 119.509455 171.319523 121.428182 172.114286 123.428571 172.114286 
z
" clip-path="url(#pdcb36aae85)" style="fill: #c85028"/>
   </g>
   <g id="patch_51">
    <path d="M 144 160.685714 
C 146.000389 160.685714 147.919117 159.890951 149.333605 158.476463 
C 150.748094 157.061974 151.542857 155.143246 151.542857 153.142857 
C 151.542857 151.142468 150.748094 149.22374 149.333605 147.809252 
C 147.919117 146.394763 146.000389 145.6 144 145.6 
C 141.999611 145.6 140.080883 146.394763 138.666395 147.809252 
C 137.251906 149.22374 136.457143 151.142468 136.457143 153.142857 
C 136.457143 155.143246 137.251906 157.061974 138.666395 158.476463 
C 140.080883 159.890951 141.999611 160.685714 144 160.685714 
z
" clip-path="url(#pdcb36aae85)" style="fill: #c85028"/>
   </g>
   <g id="patch_52">
    <path d="M 164.571429 149.257143 
C 166.571818 149.257143 168.490545 148.46238 169.905034 147.047891 
C 171.319523 145.633402 172.114286 143.714675 172.114286 141.714286 
C 172.114286 139.713897 171.319523 137.795169 169.905034 136.38068 
C 168.490545 134.966192 166.571818 134.171429 164.571429 134.171429 
C 162.571039 134.171429 160.652312 134.966192 159.237823 136.38068 
C 157.823334 137.795169 157.028571 139.713897 157.028571 141.714286 
C 157.028571 143.714675 157.823334 145.633402 159.237823 147.047891 
C 160.652312 148.46238 162.571039 149.257143 164.571429 149.257143 
z
" clip-path="url(#pdcb36aae85)" style="fill: #c85028"/>
   </g>
   <g id="patch_53">
    <path d="M 185.142857 137.828571 
C 187.143246 137.828571 189.061974 137.033808 190.476463 135.61932 
C 191.890951 134.204831 192.685714 132.286103 192.685714 130.285714 
C 192.685714 128.285325 191.890951 126.366598 190.476463 124.952109 
C 189.061974 123.53762 187.143246 122.742857 185.142857 122.742857 
C 183.142468 122.742857 181.22374 123.53762 179.809252 124.952109 
C 178.394763 126.366598 177.6 128.285325 177.6 130.285714 
C 177.6 132.286103 178.394763 134.204831 179.809252 135.61932 
C 181.22374 137.033808 183.142468 137.828571 185.142857 137.828571 
z
" clip-path="url(#pdcb36aae85)" style="fill: #c85028"/>
   </g>
   <g id="patch_54">
    <path d="M 205.714286 126.4 
C 207.714675 126.4 209.633402 125.605237 211.047891 124.190748 
C 212.46238 122.77626 213.257143 120.857532 213.257143 118.857143 
C 213.257143 116.856754 212.46238 114.938026 211.047891 113.523537 
C 209.633402 112.109049 207.714675 111.314286 205.714286 111.314286 
C 203.713897 111.314286 201.795169 112.109049 200.38068 113.523537 
C 198.966192 114.938026 198.171429 116.856754 198.171429 118.857143 
C 198.171429 120.857532 198.966192 122.77626 200.38068 124.190748 
C 201.795169 125.605237 203.713897 126.4 205.714286 126.4 
z
" clip-path="url(#pdcb36aae85)" style="fill: #c85028"/>
   </g>
   <g id="patch_55">
    <path d="M 226.285714 113.6 
C 227.922396 113.6 229.492264 112.949739 230.649573 111.79243 
C 231.806882 110.635121 232.457143 109.065253 232.457143 107.428571 
C 232.457143 105.791889 231.806882 104.222021 230.649573 103.064712 
C 229.492264 101.907404 227.922396 101.257143 226.285714 101.257143 
C 224.649032 101.257143 223.079164 101.907404 221.921855 103.064712 
C 220.764546 104.222021 220.114286 105.791889 220.114286 107.428571 
C 220.114286 109.065253 220.764546 110.635121 221.921855 111.79243 
C 223.079164 112.949739 224.649032 113.6 226.285714 113.6 
z
" clip-path="url(#pdcb36aae85)" style="fill: #e07b3a"/>
   </g>
   <g id="patch_56">
    <path d="M 246.857143 102.171429 
C 248.493825 102.171429 250.063693 101.521168 251.221002 100.363859 
C 252.378311 99.20655 253.028571 97.636682 253.028571 96 
C 253.028571 94.363318 252.378311 92.79345 251.221002 91.636141 
C 250.063693 90.478832 248.493825 89.828571 246.857143 89.828571 
C 245.220461 89.828571 243.650593 90.478832 242.493284 91.636141 
C 241.335975 92.79345 240.685714 94.363318 240.685714 96 
C 240.685714 97.636682 241.335975 99.20655 242.493284 100.363859 
C 243.650593 101.521168 245.220461 102.171429 246.857143 102.171429 
z
" clip-path="url(#pdcb36aae85)" style="fill: #e07b3a"/>
   </g>
   <g id="patch_57">
    <path d="M 45.458773 129.108106 
C 50.600362 135.235613 57.973362 139.073754 65.941815 139.770903 
C 73.910269 140.468052 81.837743 137.968529 87.965249 132.826941 
C 94.092755 127.685353 97.930896 120.312352 98.628046 112.343899 
C 99.325195 104.375446 96.825672 96.447972 91.684084 90.320465 
L 68.571429 109.714286 
z
" clip-path="url(#pdcb36aae85)" style="fill: #c85028"/>
   </g>
   <g id="patch_58">
    <path d="M 91.684084 90.320465 
C 88.852227 86.945589 85.315244 84.231567 81.322425 82.369685 
C 77.329607 80.507803 72.977016 79.542857 68.571429 79.542857 
C 64.165841 79.542857 59.81325 80.507803 55.820432 82.369685 
C 51.827614 84.231567 48.290631 86.945589 45.458773 90.320465 
L 68.571429 109.714286 
z
" clip-path="url(#pdcb36aae85)" style="fill: #2f7fa3"/>
   </g>
   <g id="patch_59">
    <path d="M 45.458773 90.320465 
C 40.90032 95.753019 38.4 102.62259 38.4 109.714286 
C 38.4 116.805981 40.90032 123.675552 45.458773 129.108106 
L 68.571429 109.714286 
z
" clip-path="url(#pdcb36aae85)" style="fill: #ffffff"/>
   </g>
   <g id="line2d_1">
    <path d="M 137.142857 150.857143 
L 178.285714 130.285714 
L 219.428571 113.828571 
" clip-path="url(#pdcb36aae85)" style="fill: none; stroke: #002030; stroke-width: 10; stroke-linecap: round"/>
   </g>
   <g id="line2d_2">
    <path d="M 130.285714 54.857143 
L 163.2 54.857143 
" clip-path="url(#pdcb36aae85)" style="fill: none; stroke: #002030; stroke-width: 6; stroke-linecap: round"/>
   </g>
   <g id="line2d_3">
    <path d="M 132.490553 63.085714 
L 160.995161 46.628571 
" clip-path="url(#pdcb36aae85)" style="fill: none; stroke: #002030; stroke-width: 6; stroke-linecap: round"/>
   </g>
   <g id="line2d_4">
    <path d="M 138.514286 69.109447 
L 154.971429 40.604839 
" clip-path="url(#pdcb36aae85)" style="fill: none; stroke: #002030; stroke-width: 6; stroke-linecap: round"/>
   </g>
   <g id="line2d_5">
    <path d="M 146.742857 71.314286 
L 146.742857 38.4 
" clip-path="url(#pdcb36aae85)" style="fill: none; stroke: #002030; stroke-width: 6; stroke-linecap: round"/>
   </g>
   <g id="line2d_6">
    <path d="M 154.971429 69.109447 
L 138.514286 40.604839 
" clip-path="url(#pdcb36aae85)" style="fill: none; stroke: #002030; stroke-width: 6; stroke-linecap: round"/>
   </g>
   <g id="line2d_7">
    <path d="M 160.995161 63.085714 
L 132.490553 46.628571 
" clip-path="url(#pdcb36aae85)" style="fill: none; stroke: #002030; stroke-width: 6; stroke-linecap: round"/>
   </g>
   <g id="patch_60">
    <path d="M 246.857143 115.2 
C 248.311971 115.2 249.70741 114.621991 250.736129 113.593271 
C 251.764848 112.564552 252.342857 111.169114 252.342857 109.714286 
C 252.342857 108.259457 251.764848 106.864019 250.736129 105.8353 
C 249.70741 104.806581 248.311971 104.228571 246.857143 104.228571 
C 245.402314 104.228571 244.006876 104.806581 242.978157 105.8353 
C 241.949438 106.864019 241.371429 108.259457 241.371429 109.714286 
C 241.371429 111.169114 241.949438 112.564552 242.978157 113.593271 
C 244.006876 114.621991 245.402314 115.2 246.857143 115.2 
z
" clip-path="url(#pdcb36aae85)" style="fill: #c85028"/>
   </g>
   <g id="patch_61">
    <path d="M 237.257143 87.771429 
C 238.711971 87.771429 240.10741 87.193419 241.136129 86.1647 
C 242.164848 85.135981 242.742857 83.740543 242.742857 82.285714 
C 242.742857 80.830886 242.164848 79.435448 241.136129 78.406729 
C 240.10741 77.378009 238.711971 76.8 237.257143 76.8 
C 235.802314 76.8 234.406876 77.378009 233.378157 78.406729 
C 232.349438 79.435448 231.771429 80.830886 231.771429 82.285714 
C 231.771429 83.740543 232.349438 85.135981 233.378157 86.1647 
C 234.406876 87.193419 235.802314 87.771429 237.257143 87.771429 
z
" clip-path="url(#pdcb36aae85)" style="fill: #e07b3a"/>
   </g>
   <g id="patch_62">
    <path d="M 212.571429 80.914286 
C 214.026257 80.914286 215.421695 80.336276 216.450414 79.307557 
C 217.479133 78.278838 218.057143 76.8834 218.057143 75.428571 
C 218.057143 73.973743 217.479133 72.578305 216.450414 71.549586 
C 215.421695 70.520867 214.026257 69.942857 212.571429 69.942857 
C 211.1166 69.942857 209.721162 70.520867 208.692443 71.549586 
C 207.663724 72.578305 207.085714 73.973743 207.085714 75.428571 
C 207.085714 76.8834 207.663724 78.278838 208.692443 79.307557 
C 209.721162 80.336276 211.1166 80.914286 212.571429 80.914286 
z
" clip-path="url(#pdcb36aae85)" style="fill: #6fb7d2"/>
   </g>
   <g id="patch_63">
    <path d="M 192 67.2 
C 193.454828 67.2 194.850267 66.621991 195.878986 65.593271 
C 196.907705 64.564552 197.485714 63.169114 197.485714 61.714286 
C 197.485714 60.259457 196.907705 58.864019 195.878986 57.8353 
C 194.850267 56.806581 193.454828 56.228571 192 56.228571 
C 190.545172 56.228571 189.149733 56.806581 188.121014 57.8353 
C 187.092295 58.864019 186.514286 60.259457 186.514286 61.714286 
C 186.514286 63.169114 187.092295 64.564552 188.121014 65.593271 
C 189.149733 66.621991 190.545172 67.2 192 67.2 
z
" clip-path="url(#pdcb36aae85)" style="fill: #002030"/>
   </g>
   <g id="patch_64">
    <path d="M 178.285714 139.885714 
C 180.831664 139.885714 183.273681 138.874198 185.073939 137.073939 
C 186.874198 135.273681 187.885714 132.831664 187.885714 130.285714 
C 187.885714 127.739765 186.874198 125.297748 185.073939 123.497489 
C 183.273681 121.697231 180.831664 120.685714 178.285714 120.685714 
C 175.739765 120.685714 173.297748 121.697231 171.497489 123.497489 
C 169.697231 125.297748 168.685714 127.739765 168.685714 130.285714 
C 168.685714 132.831664 169.697231 135.273681 171.497489 137.073939 
C 173.297748 138.874198 175.739765 139.885714 178.285714 139.885714 
z
" clip-path="url(#pdcb36aae85)" style="fill: #002030"/>
   </g>
   <g id="patch_65">
    <path d="M 219.428571 123.428571 
C 221.974521 123.428571 224.416538 122.417055 226.216797 120.616797 
C 228.017055 118.816538 229.028571 116.374521 229.028571 113.828571 
C 229.028571 111.282622 228.017055 108.840605 226.216797 107.040346 
C 224.416538 105.240088 221.974521 104.228571 219.428571 104.228571 
C 216.882622 104.228571 214.440605 105.240088 212.640346 107.040346 
C 210.840088 108.840605 209.828571 111.282622 209.828571 113.828571 
C 209.828571 116.374521 210.840088 118.816538 212.640346 120.616797 
C 214.440605 122.417055 216.882622 123.428571 219.428571 123.428571 
z
" clip-path="url(#pdcb36aae85)" style="fill: #002030"/>
   </g>
   <g id="patch_66">
    <path d="M 146.742857 60.342857 
C 148.197686 60.342857 149.593124 59.764848 150.621843 58.736129 
C 151.650562 57.70741 152.228571 56.311971 152.228571 54.857143 
C 152.228571 53.402314 151.650562 52.006876 150.621843 50.978157 
C 149.593124 49.949438 148.197686 49.371429 146.742857 49.371429 
C 145.288029 49.371429 143.89259 49.949438 142.863871 50.978157 
C 141.835152 52.006876 141.257143 53.402314 141.257143 54.857143 
C 141.257143 56.311971 141.835152 57.70741 142.863871 58.736129 
C 143.89259 59.764848 145.288029 60.342857 146.742857 60.342857 
z
" clip-path="url(#pdcb36aae85)" style="fill: #ffffff"/>
   </g>
   <g id="patch_67">
    <path d="M 178.285714 135.085714 
C 179.558689 135.085714 180.779698 134.579956 181.679827 133.679827 
C 182.579956 132.779698 183.085714 131.558689 183.085714 130.285714 
C 183.085714 129.012739 182.579956 127.791731 181.679827 126.891602 
C 180.779698 125.991473 179.558689 125.485714 178.285714 125.485714 
C 177.012739 125.485714 175.791731 125.991473 174.891602 126.891602 
C 173.991473 127.791731 173.485714 129.012739 173.485714 130.285714 
C 173.485714 131.558689 173.991473 132.779698 174.891602 133.679827 
C 175.791731 134.579956 177.012739 135.085714 178.285714 135.085714 
z
" clip-path="url(#pdcb36aae85)" style="fill: #ffffff"/>
   </g>
   <g id="patch_68">
    <path d="M 219.428571 118.628571 
C 220.701546 118.628571 221.922555 118.122813 222.822684 117.222684 
C 223.722813 116.322555 224.228571 115.101546 224.228571 113.828571 
C 224.228571 112.555597 223.722813 111.334588 222.822684 110.434459 
C 221.922555 109.53433 220.701546 109.028571 219.428571 109.028571 
C 218.155597 109.028571 216.934588 109.53433 216.034459 110.434459 
C 215.13433 111.334588 214.628571 112.555597 214.628571 113.828571 
C 214.628571 115.101546 215.13433 116.322555 216.034459 117.222684 
C 216.934588 118.122813 218.155597 118.628571 219.428571 118.628571 
z
" clip-path="url(#pdcb36aae85)" style="fill: #ffffff"/>
   </g>
   <g id="patch_69">
    <path d="M 144 281.142857 
C 180.370711 281.142857 215.256668 266.692621 240.974644 240.974644 
C 266.692621 215.256668 281.142857 180.370711 281.142857 144 
C 281.142857 107.629289 266.692621 72.743332 240.974644 47.025356 
C 215.256668 21.307379 180.370711 6.857143 144 6.857143 
C 107.629289 6.857143 72.743332 21.307379 47.025356 47.025356 
C 21.307379 72.743332 6.857143 107.629289 6.857143 144 
C 6.857143 180.370711 21.307379 215.256668 47.025356 240.974644 
C 72.743332 266.692621 107.629289 281.142857 144 281.142857 
L 144 281.142857 
z
" clip-path="url(#p2c2c917422)" style="fill: none; stroke: #002030; stroke-width: 18; stroke-linejoin: miter"/>
   </g>
  </g>
 </g>
 <defs>
  <clipPath id="p2c2c917422">
   <rect x="0" y="0" width="288" height="288"/>
  </clipPath>
  <clipPath id="pdcb36aae85">
   <path d="M 144 271.542857 
C 177.824761 271.542857 210.268701 258.104137 234.186419 234.186419 
C 258.104137 210.268701 271.542857 177.824761 271.542857 144 
C 271.542857 110.175239 258.104137 77.731299 234.186419 53.813581 
C 210.268701 29.895863 177.824761 16.457143 144 16.457143 
C 110.175239 16.457143 77.731299 29.895863 53.813581 53.813581 
C 29.895863 77.731299 16.457143 110.175239 16.457143 144 
C 16.457143 177.824761 29.895863 210.268701 53.813581 234.186419 
C 77.731299 258.104137 110.175239 271.542857 144 271.542857 
z
"/>
  </clipPath>
 </defs>
</svg>
